<svg width="59" height="69" viewBox="0 0 59 69" fill="none" xmlns="http://www.w3.org/2000/svg">
<path d="M27.3407 26.5015C26.5791 27.2182 26.1983 28.1141 26.1983 29.1892C26.1983 30.2642 26.5791 31.1825 27.3407 31.944C28.1023 32.7055 29.0095 33.0863 30.0623 33.0863C31.1151 33.0863 32.0223 32.7055 32.7839 31.944L34.1279 30.6674C34.8895 29.9059 35.2703 28.9876 35.2703 27.9125C35.2703 26.8375 34.8895 25.9192 34.1279 25.1577C33.3663 24.3962 32.4479 24.0154 31.3727 24.0154C30.2975 24.0154 29.3791 24.3962 28.6175 25.1577L27.3407 26.5015ZM29.1551 28.3157L30.4991 27.0391C30.7231 26.7703 31.0031 26.6359 31.3391 26.6359C31.6751 26.6359 31.9663 26.7591 32.2127 27.0055C32.4591 27.2518 32.5823 27.5542 32.5823 27.9125C32.5823 28.2709 32.4703 28.5621 32.2463 28.786L30.9023 30.1298C30.6783 30.3538 30.3871 30.4658 30.0287 30.4658C29.6703 30.4658 29.3791 30.3538 29.1551 30.1298C28.9311 29.8611 28.8191 29.5587 28.8191 29.2228C28.8191 28.8868 28.9311 28.5844 29.1551 28.3157ZM55.6319 23.6795C57.5135 21.171 58.4543 18.3266 58.4543 15.1462C58.4543 13.22 58.0959 11.3947 57.3791 9.6701C56.6623 7.94552 55.6207 6.40012 54.2543 5.0339C52.8879 3.66767 51.3311 2.62621 49.5839 1.9095C47.8367 1.19279 45.9999 0.834442 44.0735 0.834442C40.9823 0.834442 38.1375 1.77512 35.5391 3.65647L34.4639 2.58141C34.2399 2.31264 33.9375 2.17827 33.5567 2.17827C33.1759 2.17827 32.8623 2.30145 32.6159 2.54782C32.3695 2.79418 32.2463 3.10774 32.2463 3.48849C32.2463 3.86925 32.3807 4.17161 32.6495 4.39558L33.5903 5.40345C32.4703 6.61289 31.5743 7.97911 30.9023 9.50212C30.2303 11.0251 29.8495 12.6153 29.7599 14.2727L4.82869 46.1886C4.64949 46.4573 4.57109 46.7597 4.59349 47.0957C4.61589 47.4316 4.73909 47.7116 4.96309 47.9355L7.18069 50.2201L2.34229 55.0578C1.53589 55.8641 0.987086 56.816 0.695886 57.9135C0.404686 59.0109 0.393486 60.1196 0.662286 61.2394C0.931086 62.3593 1.46869 63.3224 2.27509 64.1287C2.31989 64.1287 2.34229 64.1511 2.34229 64.1958C3.64149 65.4501 5.16469 66.0772 6.91189 66.0772C8.65909 66.0772 10.1599 65.4501 11.4143 64.1958L19.0079 56.6032C19.7695 55.8417 20.6767 55.461 21.7295 55.461C22.7823 55.461 23.6783 55.8305 24.4175 56.5696C25.1567 57.3087 25.5263 58.2046 25.5263 59.2573C25.5263 60.3099 25.1455 61.217 24.3839 61.9785L20.6207 65.8084C20.3967 66.0324 20.2847 66.3348 20.2847 66.7155C20.2847 67.0963 20.4079 67.4098 20.6543 67.6562C20.9007 67.9026 21.2031 68.0257 21.5615 68.0257C21.9199 68.0257 22.2335 67.8914 22.5023 67.6226L26.2655 63.8599C27.1167 63.0536 27.6879 62.0905 27.9791 60.9707C28.2703 59.8508 28.2703 58.7422 27.9791 57.6447C27.6879 56.5472 27.1279 55.5842 26.2991 54.7555C25.4703 53.9268 24.4959 53.3668 23.3759 53.0757C22.2559 52.7845 21.1471 52.7845 20.0495 53.0757C18.9519 53.3668 17.9775 53.9156 17.1263 54.7219L9.59989 62.3145C8.88309 63.0312 7.99829 63.3895 6.94549 63.3895C5.89269 63.3895 4.99669 63.02 4.25749 62.2809C3.51829 61.5418 3.14869 60.6459 3.14869 59.5932C3.14869 58.5406 3.50709 57.6559 4.22389 56.9392L9.06229 52.0342L11.4815 54.4531C11.7055 54.6771 11.9855 54.8003 12.3215 54.8227C12.6575 54.8451 12.9599 54.7443 13.2287 54.5203L45.0143 29.4579C46.6719 29.3683 48.2623 28.9988 49.7855 28.3493C51.3087 27.6998 52.6751 26.8151 53.8847 25.6952L55.0943 26.9047C55.3631 27.1734 55.6767 27.3078 56.0351 27.3078C56.3935 27.3078 56.7071 27.1734 56.9759 26.9047C57.2447 26.6359 57.3791 26.3223 57.3791 25.964C57.3791 25.6056 57.2447 25.2921 56.9759 25.0233L55.6319 23.6795ZM7.65109 46.9277L10.0031 43.8369L15.5135 49.3466L12.4895 51.7655L7.65109 46.9277ZM17.6639 47.734L11.6831 41.7539L31.2383 16.6916L42.5951 28.0469L17.6639 47.734ZM45.1487 26.8375L32.4479 14.1383C32.6719 11.5403 33.6799 9.23335 35.4719 7.21761L38.5631 10.3756C38.8767 10.5996 39.1903 10.7116 39.5039 10.7116C39.8175 10.7116 40.1087 10.5884 40.3775 10.342C40.6463 10.0956 40.7807 9.79328 40.7807 9.43493C40.7807 9.07657 40.6687 8.76301 40.4447 8.49425L37.4207 5.53783C39.4367 4.14921 41.6543 3.4549 44.0735 3.4549C45.6415 3.4549 47.1423 3.74606 48.5759 4.32839C50.0095 4.91071 51.2863 5.7618 52.4063 6.88166C53.5263 8.00151 54.3775 9.26695 54.9599 10.678C55.5423 12.089 55.8335 13.5784 55.8335 15.1462C55.8335 17.5651 55.1391 19.7824 53.7503 21.7981L47.9711 16.0869C47.7471 15.8181 47.4447 15.6837 47.0639 15.6837C46.6831 15.6837 46.3695 15.8069 46.1231 16.0533C45.8767 16.2996 45.7535 16.6132 45.7535 16.9939C45.7535 17.3747 45.8879 17.6771 46.1567 17.901L52.0031 23.8139C50.0767 25.6056 47.7919 26.6135 45.1487 26.8375ZM56.5727 51.8326V38.1928C56.5727 37.7449 56.4047 37.3865 56.0687 37.1177C55.7327 36.849 55.3183 36.8042 54.8255 36.9834L42.1919 41.3508C41.9231 41.3956 41.6991 41.5412 41.5199 41.7875C41.3407 42.0339 41.2511 42.2915 41.2511 42.5602V53.1765L41.1167 53.1093C39.9071 52.8853 38.7423 52.9973 37.6223 53.4452C36.2783 53.938 35.2703 54.6995 34.5983 55.7297C33.9263 56.76 33.7919 57.7679 34.1951 58.7533C34.4191 59.4701 34.8783 60.03 35.5727 60.4331C36.2671 60.8363 37.0847 61.0379 38.0255 61.0379C38.7871 61.0379 39.5263 60.9035 40.2431 60.6347C41.4527 60.142 42.4159 59.4477 43.1327 58.5518C43.7151 57.7903 43.9615 57.0288 43.8719 56.2673V43.5009L53.9519 40.007V48.809H53.8175C52.6527 48.4955 51.4655 48.5627 50.2559 49.0106C49.0463 49.4586 48.1055 50.1753 47.4335 51.1607C47.0751 51.6535 46.8399 52.191 46.7279 52.7733C46.6159 53.3556 46.6495 53.9156 46.8287 54.4531C47.0975 55.1698 47.5791 55.7185 48.2735 56.0993C48.9679 56.48 49.7631 56.6704 50.6591 56.6704C51.3759 56.6704 52.1375 56.536 52.9439 56.2673C54.1535 55.7745 55.1167 55.0802 55.8335 54.1843C56.3263 53.4228 56.5727 52.6613 56.5727 51.8998V51.8326ZM40.9823 57.0064C40.6687 57.4543 40.1311 57.8351 39.3695 58.1486C38.6975 58.4174 38.1039 58.507 37.5887 58.4174C37.0735 58.3278 36.7599 58.1486 36.6479 57.8799C36.5359 57.6111 36.6591 57.2751 37.0175 56.872C37.3759 56.4688 37.8687 56.1553 38.4959 55.9313C39.1231 55.7073 39.5935 55.5954 39.9071 55.5954L40.5119 55.6625C40.9599 55.7969 41.2175 55.9761 41.2847 56.2001C41.3519 56.424 41.2511 56.6928 40.9823 57.0064ZM53.6831 52.6389C53.2799 53.2213 52.7199 53.602 52.0031 53.7812C51.3759 54.05 50.7935 54.1395 50.2559 54.05C49.7183 53.9604 49.4047 53.7812 49.3151 53.5124C49.2255 53.2437 49.2927 52.9749 49.5167 52.7061C49.9647 52.1686 50.5247 51.7655 51.1967 51.4967C51.6895 51.3623 52.1375 51.2951 52.5407 51.2951C52.8543 51.2951 53.0783 51.3175 53.2127 51.3623C53.5263 51.4071 53.7727 51.5639 53.9519 51.8326C53.9967 51.967 53.9071 52.2358 53.6831 52.6389ZM2.07349 19.8496C3.64149 19.8496 4.97429 20.3983 6.07189 21.4958C7.16949 22.5932 7.71829 23.9259 7.71829 25.4936C7.71829 25.852 7.84149 26.1656 8.08789 26.4343C8.33429 26.7031 8.63669 26.8375 8.99509 26.8375C9.35349 26.8375 9.66709 26.7031 9.93589 26.4343C10.2047 26.1656 10.3391 25.852 10.3391 25.4936C10.3391 23.9259 10.8879 22.5932 11.9855 21.4958C13.0831 20.3983 14.4159 19.8496 15.9839 19.8496C16.3423 19.8496 16.6447 19.7264 16.8911 19.48C17.1375 19.2337 17.2607 18.9313 17.2607 18.5729C17.2607 18.2146 17.1375 17.901 16.8911 17.6323C16.6447 17.3635 16.3423 17.2291 15.9839 17.2291C14.4159 17.2291 13.0831 16.6804 11.9855 15.5829C10.8879 14.4855 10.3391 13.1528 10.3391 11.585C10.3391 11.2267 10.2047 10.9243 9.93589 10.678C9.66709 10.4316 9.35349 10.3084 8.99509 10.3084C8.63669 10.3084 8.33429 10.4316 8.08789 10.678C7.84149 10.9243 7.71829 11.2267 7.71829 11.585C7.71829 13.1081 7.16949 14.4295 6.07189 15.5493C4.97429 16.6692 3.64149 17.2291 2.07349 17.2291C1.71509 17.2291 1.40149 17.3635 1.13269 17.6323C0.863886 17.901 0.729486 18.2146 0.729486 18.5729C0.729486 18.9313 0.863886 19.2337 1.13269 19.48C1.40149 19.7264 1.71509 19.8496 2.07349 19.8496ZM8.99509 16.0869C9.75669 17.1619 10.5855 17.9906 11.4815 18.5729C10.5407 19.1105 9.71189 19.9392 8.99509 21.059C8.36789 20.0288 7.53909 19.2001 6.50869 18.5729C7.53909 17.901 8.36789 17.0723 8.99509 16.0869ZM44.5439 12.7273C44.4095 12.4585 44.2191 12.2458 43.9727 12.089C43.7263 11.9322 43.4687 11.8762 43.1999 11.921C42.9311 11.9658 42.6847 12.0666 42.4607 12.2234C42.2367 12.3801 42.0911 12.5929 42.0239 12.8617C41.9567 13.1304 41.9679 13.3992 42.0575 13.668C42.1471 13.9367 42.3039 14.1495 42.5279 14.3063C42.7519 14.4631 42.9983 14.5415 43.2671 14.5415C43.5359 14.5415 43.7935 14.4631 44.0399 14.3063C44.2863 14.1495 44.4543 13.9143 44.5439 13.6008C44.6335 13.2872 44.6335 12.9961 44.5439 12.7273ZM20.6207 10.7116H21.8975V11.9882C21.8975 12.3465 22.0207 12.6601 22.2671 12.9289C22.5135 13.1976 22.8159 13.332 23.1743 13.332C23.5327 13.332 23.8463 13.1976 24.1151 12.9289C24.3839 12.6601 24.5183 12.3465 24.5183 11.9882V10.7116H25.7279C26.0863 10.7116 26.3999 10.5884 26.6687 10.342C26.9375 10.0956 27.0719 9.79328 27.0719 9.43493C27.0719 9.07657 26.9375 8.76301 26.6687 8.49425C26.3999 8.22548 26.0863 8.0911 25.7279 8.0911H24.5183V6.88166C24.5183 6.5233 24.3839 6.20974 24.1151 5.94098C23.8463 5.67221 23.5327 5.53783 23.1743 5.53783C22.8159 5.53783 22.5135 5.67221 22.2671 5.94098C22.0207 6.20974 21.8975 6.5233 21.8975 6.88166V8.0911H20.6207C20.2623 8.0911 19.9487 8.22548 19.6799 8.49425C19.4111 8.76301 19.2767 9.07657 19.2767 9.43493C19.2767 9.79328 19.4111 10.0956 19.6799 10.342C19.9487 10.5884 20.2623 10.7116 20.6207 10.7116Z" fill="white"/>
</svg>
