<svg width="68" height="63" viewBox="0 0 68 63" fill="none" xmlns="http://www.w3.org/2000/svg">
<path d="M60.1799 35.3035C60.0455 31.0929 58.9255 27.151 56.8199 23.4778C54.6247 19.5807 51.6119 16.4563 47.7815 14.1046C43.9511 11.753 39.8183 10.4651 35.3831 10.2411V3.45483H40.3559C40.8935 3.45483 41.2631 3.23086 41.4647 2.78292C41.6663 2.33497 41.6663 1.89823 41.4647 1.47269C41.2631 1.04714 40.8935 0.834366 40.3559 0.834366H27.9911C27.4535 0.834366 27.0839 1.04714 26.8823 1.47269C26.6807 1.89823 26.6807 2.33497 26.8823 2.78292C27.0839 3.23086 27.4535 3.45483 27.9911 3.45483H32.7623V10.2411C28.2823 10.4651 24.1271 11.753 20.2967 14.1046C16.4663 16.4563 13.4535 19.5807 11.2583 23.4778C9.24227 27.0614 8.14467 30.9697 7.96547 35.2027C7.78627 39.4358 8.54787 43.4113 10.2503 47.1292C11.6391 50.22 13.5431 52.9188 15.9623 55.2257C18.3815 57.5326 21.1591 59.3244 24.2951 60.601C27.4311 61.8777 30.6791 62.516 34.0391 62.516C36.7271 62.516 39.3479 62.1128 41.9015 61.3065C44.4551 60.5002 46.8295 59.3356 49.0247 57.8126C49.4279 57.499 49.5959 57.1071 49.5287 56.6367C49.4615 56.1664 49.2151 55.8081 48.7895 55.5617C48.3639 55.3153 47.9271 55.3489 47.4791 55.6625C44.6567 57.6334 41.4983 58.9324 38.0039 59.5596C41.4087 56.2 43.9623 52.3253 45.6647 47.9355H54.5351L54.2663 48.4058C53.9975 48.8538 53.9975 49.2905 54.2663 49.716C54.5351 50.1416 54.9159 50.3656 55.4087 50.388C55.9015 50.4104 56.2823 50.1976 56.5511 49.7496C56.9991 49.0329 57.4471 48.1594 57.8951 47.1292C59.4631 43.7248 60.2471 40.1413 60.2471 36.3786C60.2471 35.8858 60.2247 35.5275 60.1799 35.3035ZM42.5063 48.6074C40.8039 52.3253 38.4295 55.5729 35.3831 58.3501V47.9355H42.7751L42.6407 48.2042C42.5959 48.3834 42.5511 48.5178 42.5063 48.6074ZM30.9479 56.6031C28.6183 54.0499 26.7591 51.1607 25.3703 47.9355H32.7623V58.3501C32.1799 57.8574 31.5751 57.2751 30.9479 56.6031ZM10.5863 36.7145H20.3303C20.4199 39.7157 20.8455 42.5602 21.6071 45.2478H12.3335C11.1687 42.5154 10.5863 39.6709 10.5863 36.7145ZM26.7143 21.9324C28.3719 19.0656 30.3879 16.5347 32.7623 14.3398V22.8059H26.2439C26.3335 22.6715 26.4679 22.4476 26.6471 22.134L26.7143 21.9324ZM36.9287 15.8852C38.9447 18.0353 40.5799 20.3422 41.8343 22.8059H35.3831V14.3398L35.9207 14.8773C36.3687 15.3253 36.7047 15.6612 36.9287 15.8852ZM45.1271 37.1177C45.0375 39.9397 44.5671 42.6498 43.7159 45.2478H35.3831V36.7145H45.1271V37.1177ZM23.0855 33.9597C23.3543 31.0033 24.0263 28.1812 25.1015 25.4936H32.7623V34.0269H23.0855V33.9597ZM43.0439 25.4936C44.1191 28.226 44.7687 31.0705 44.9927 34.0269H35.3831V25.4936H43.0439ZM24.3623 45.2478C23.4663 42.4258 23.0183 39.5814 23.0183 36.7145H32.7623V45.2478H24.3623ZM47.6807 34.0269C47.4567 31.0705 46.8519 28.226 45.8663 25.4936H54.8711C56.3047 28.1364 57.1559 30.9809 57.4247 34.0269H47.6807ZM53.2583 22.8059H44.7911C43.1783 19.2224 40.9159 16.0196 38.0039 13.1976C41.0503 13.6903 43.8951 14.7766 46.5383 16.4563C49.1815 18.1361 51.4215 20.2527 53.2583 22.8059ZM30.1415 13.1976C27.2743 16.0196 24.9895 19.2224 23.2871 22.8059H14.8199C16.6119 20.2527 18.8407 18.1473 21.5063 16.4899C24.1719 14.8326 27.0503 13.7351 30.1415 13.1976ZM13.2071 25.4936H22.2119C21.2263 28.3156 20.6439 31.16 20.4647 34.0269H10.6535C11.0119 30.9809 11.8631 28.1364 13.2071 25.4936ZM13.6103 47.9355H22.4807C24.1831 52.2805 26.7143 56.1552 30.0743 59.5596C26.6247 58.9772 23.4551 57.6558 20.5655 55.5953C17.6759 53.5347 15.3575 50.9815 13.6103 47.9355ZM46.5383 45.2478C47.3447 42.2466 47.7479 39.4022 47.7479 36.7145H57.5591C57.5591 39.6709 56.9767 42.5154 55.8119 45.2478H46.5383ZM6.35267 5.2018C5.99427 5.2018 5.68067 5.33619 5.41187 5.60495C5.14307 5.87371 5.00867 6.18727 5.00867 6.54563V8.15822C5.00867 8.69575 5.23267 9.0653 5.68067 9.26688C6.12867 9.46845 6.56547 9.46845 6.99107 9.26688C7.41667 9.0653 7.62947 8.69575 7.62947 8.15822V6.54563C7.62947 6.18727 7.50627 5.87371 7.25987 5.60495C7.01347 5.33619 6.71107 5.2018 6.35267 5.2018ZM6.35267 12.3913C5.99427 12.3913 5.68067 12.5257 5.41187 12.7944C5.14307 13.0632 5.00867 13.3767 5.00867 13.7351V15.2805C5.00867 15.818 5.23267 16.1988 5.68067 16.4227C6.12867 16.6467 6.56547 16.6467 6.99107 16.4227C7.41667 16.1988 7.62947 15.818 7.62947 15.2805V13.7351C7.62947 13.3767 7.50627 13.0632 7.25987 12.7944C7.01347 12.5257 6.71107 12.3913 6.35267 12.3913ZM9.37667 12.2569H10.9895C11.5271 12.2569 11.8967 12.0329 12.0983 11.585C12.2999 11.137 12.2999 10.7003 12.0983 10.2747C11.8967 9.8492 11.5271 9.63643 10.9895 9.63643H9.37667C8.83907 9.63643 8.46947 9.8492 8.26787 10.2747C8.06627 10.7003 8.06627 11.137 8.26787 11.585C8.46947 12.0329 8.83907 12.2569 9.37667 12.2569ZM3.26147 9.63643H1.64867C1.11107 9.63643 0.741472 9.8492 0.539872 10.2747C0.338272 10.7003 0.338272 11.137 0.539872 11.585C0.741472 12.0329 1.11107 12.2569 1.64867 12.2569H3.26147C3.79907 12.2569 4.16867 12.0329 4.37027 11.585C4.57187 11.137 4.57187 10.7003 4.37027 10.2747C4.16867 9.8492 3.79907 9.63643 3.26147 9.63643ZM53.0567 52.2357C52.8327 52.1013 52.5751 52.0341 52.2839 52.0341C51.9927 52.0341 51.7351 52.1237 51.5111 52.3029C51.2871 52.4821 51.1415 52.7173 51.0743 53.0084C51.0071 53.2996 51.0295 53.6019 51.1415 53.9155C51.2535 54.2291 51.4775 54.4418 51.8135 54.5538C52.1495 54.6658 52.4967 54.6658 52.8551 54.5538C53.2135 54.4418 53.4487 54.2179 53.5607 53.8819C53.6727 53.5459 53.6839 53.2324 53.5943 52.9412C53.5047 52.6501 53.3255 52.4149 53.0567 52.2357ZM61.6583 5.2018C61.2999 5.2018 60.9863 5.33619 60.7175 5.60495C60.4487 5.87371 60.3143 6.18727 60.3143 6.54563V8.15822C60.3143 8.69575 60.5271 9.0653 60.9527 9.26688C61.3783 9.46845 61.8151 9.46845 62.2631 9.26688C62.7111 9.0653 62.9351 8.69575 62.9351 8.15822V6.54563C62.9351 6.18727 62.8119 5.87371 62.5655 5.60495C62.3191 5.33619 62.0167 5.2018 61.6583 5.2018ZM61.6583 12.3913C61.2999 12.3913 60.9863 12.5257 60.7175 12.7944C60.4487 13.0632 60.3143 13.3767 60.3143 13.7351V15.2805C60.3143 15.818 60.5383 16.1988 60.9863 16.4227C61.4343 16.6467 61.8711 16.6467 62.2967 16.4227C62.7223 16.1988 62.9351 15.818 62.9351 15.2805V13.7351C62.9351 13.3767 62.8119 13.0632 62.5655 12.7944C62.3191 12.5257 62.0167 12.3913 61.6583 12.3913ZM56.9543 12.2569H58.5671C59.1047 12.2569 59.4743 12.0329 59.6759 11.585C59.8775 11.137 59.8775 10.7003 59.6759 10.2747C59.4743 9.8492 59.1047 9.63643 58.5671 9.63643H56.9543C56.4167 9.63643 56.0471 9.8604 55.8455 10.3083C55.6439 10.7563 55.6439 11.193 55.8455 11.6186C56.0471 12.0441 56.4167 12.2569 56.9543 12.2569ZM66.2951 9.63643H64.6823C64.1447 9.63643 63.7751 9.8604 63.5735 10.3083C63.3719 10.7563 63.3719 11.193 63.5735 11.6186C63.7751 12.0441 64.1447 12.2569 64.6823 12.2569H66.2951C66.8327 12.2569 67.2023 12.0329 67.4039 11.585C67.6055 11.137 67.6055 10.7003 67.4039 10.2747C67.2023 9.8492 66.8327 9.63643 66.2951 9.63643Z" fill="white"/>
</svg>
