<svg width="68" height="79" viewBox="0 0 68 79" fill="none" xmlns="http://www.w3.org/2000/svg">
<g clip-path="url(#clip0_94_1150)">
<path d="M28.0508 23.2369C27.9612 23.5953 27.9948 23.9313 28.1516 24.2448C28.3084 24.5584 28.5548 24.7823 28.8908 24.9167C29.2268 25.0511 29.5516 25.0399 29.8652 24.8831C30.1788 24.7264 30.4028 24.4688 30.5372 24.1104C31.2092 22.2739 31.5004 20.5493 31.4108 18.9367C31.3212 17.9512 31.03 16.6522 30.5372 15.0396C30.134 13.651 29.91 12.5311 29.8652 11.68C29.7756 10.4258 29.9996 9.05958 30.5372 7.58138C30.6716 7.26781 30.6716 6.94305 30.5372 6.6071C30.4028 6.27114 30.1564 6.03597 29.798 5.90159C29.4396 5.76721 29.0924 5.7784 28.7564 5.93519C28.4204 6.09196 28.1852 6.34953 28.0508 6.70789C27.4236 8.49966 27.1548 10.2018 27.2444 11.8144C27.2892 12.7551 27.5356 14.0317 27.9836 15.6443L28.0508 15.8459C28.4988 17.2345 28.7452 18.332 28.79 19.1383C28.8796 20.3925 28.6332 21.7587 28.0508 23.2369ZM35.9804 23.2369C35.846 23.5505 35.846 23.8753 35.9804 24.2112C36.1148 24.5472 36.3612 24.7823 36.7196 24.9167C37.078 25.0511 37.414 25.0399 37.7276 24.8831C38.0412 24.7264 38.2652 24.4688 38.3996 24.1104C39.0716 22.3187 39.3628 20.6165 39.2732 19.0039C39.2284 18.0632 38.982 16.7866 38.534 15.174L38.4668 14.9724C38.0188 13.5838 37.7724 12.4863 37.7276 11.68C37.638 10.4258 37.862 9.05958 38.3996 7.58138C38.534 7.26781 38.534 6.94305 38.3996 6.6071C38.2652 6.27114 38.03 6.03597 37.694 5.90159C37.358 5.76721 37.0108 5.7784 36.6524 5.93519C36.294 6.09196 36.07 6.34953 35.9804 6.70789C35.3084 8.49966 35.0172 10.2018 35.1068 11.8144C35.1516 12.7551 35.398 14.0317 35.846 15.6443L35.9132 15.8459C36.3612 17.2345 36.6076 18.332 36.6524 19.1383C36.742 20.3925 36.518 21.7587 35.9804 23.2369ZM20.1884 23.2369C20.054 23.5505 20.0652 23.8753 20.222 24.2112C20.3788 24.5472 20.6364 24.7823 20.9948 24.9167C21.3532 25.0511 21.6892 25.0399 22.0028 24.8831C22.3164 24.7264 22.5404 24.4688 22.6748 24.1104C23.3468 22.2739 23.638 20.5493 23.5484 18.9367C23.4588 17.9512 23.1676 16.6522 22.6748 15.0396C22.2716 13.651 22.0476 12.5311 22.0028 11.68C21.9132 10.4258 22.1372 9.05958 22.6748 7.58138C22.8092 7.22302 22.798 6.88706 22.6412 6.5735C22.4844 6.25995 22.238 6.03597 21.902 5.90159C21.566 5.76721 21.23 5.7784 20.894 5.93519C20.558 6.09196 20.3228 6.34953 20.1884 6.70789C19.5164 8.54445 19.2252 10.269 19.3148 11.8816C19.4044 12.8671 19.6956 14.1661 20.1884 15.7787V15.8459C20.6364 17.2345 20.8828 18.332 20.9276 19.1383C21.0172 20.3925 20.7708 21.7587 20.1884 23.2369ZM30.6044 71.7491C30.6044 72.1074 30.4812 72.4098 30.2348 72.6562C29.9884 72.9025 29.686 73.0257 29.3276 73.0257C28.9692 73.0257 28.6556 72.9025 28.3868 72.6562C28.118 72.4098 27.9836 72.1074 27.9836 71.7491C27.9836 71.3907 28.118 71.0772 28.3868 70.8084C28.6556 70.5396 28.9692 70.4052 29.3276 70.4052C29.686 70.4052 29.9884 70.5396 30.2348 70.8084C30.4812 71.0772 30.6044 71.3907 30.6044 71.7491ZM7.01724 73.0257H23.414C23.7724 73.0257 24.0748 72.9025 24.3212 72.6562C24.5676 72.4098 24.6908 72.1074 24.6908 71.7491C24.6908 71.3907 24.5676 71.0772 24.3212 70.8084C24.0748 70.5396 23.7724 70.4052 23.414 70.4052H7.01724C6.16604 70.4052 5.40444 70.1701 4.73244 69.6997C4.06044 69.2294 3.56764 68.5911 3.25404 67.7848H55.334C55.0652 68.5463 54.5948 69.1734 53.9228 69.6661C53.2508 70.1589 52.4892 70.4052 51.638 70.4052H35.2412C34.8828 70.4052 34.5692 70.5396 34.3004 70.8084C34.0316 71.0772 33.8972 71.3907 33.8972 71.7491C33.8972 72.1074 34.0316 72.4098 34.3004 72.6562C34.5692 72.9025 34.8828 73.0257 35.2412 73.0257H51.638C52.8476 73.0257 53.9452 72.7345 54.9308 72.1522C55.9164 71.5699 56.7004 70.7748 57.2828 69.7669C57.8652 68.7591 58.1564 67.6504 58.1564 66.441C58.1564 66.0826 58.0332 65.7802 57.7868 65.5339C57.5404 65.2875 57.238 65.1643 56.8796 65.1643H40.4156C43.2828 63.5517 45.6572 61.2896 47.5388 58.378C50.4508 57.9749 53.0268 57.0566 55.2668 55.6232C57.5068 54.1897 59.2428 52.3532 60.4748 50.1135C61.7068 47.8738 62.3228 45.4101 62.3228 42.7224C62.3228 41.065 61.9084 39.5308 61.0796 38.1198C60.2508 36.7088 59.1308 35.589 57.7196 34.7603C56.3084 33.9316 54.774 33.5172 53.1164 33.5172H50.4284V32.7109C50.4284 31.6359 50.0476 30.7176 49.286 29.9561C48.5244 29.1946 47.606 28.8138 46.5308 28.8138H12.2588C11.1836 28.8138 10.254 29.1946 9.47004 29.9561C8.68604 30.7176 8.29404 31.6359 8.29404 32.7109V48.4337C8.33884 51.9276 9.27964 55.1752 11.1164 58.1764C12.9084 61.1328 15.3052 63.4621 18.3068 65.1643H1.77564C1.41724 65.1643 1.10364 65.2875 0.834841 65.5339C0.566041 65.7802 0.431641 66.0826 0.431641 66.441C0.431641 67.6504 0.722841 68.7591 1.30524 69.7669C1.88764 70.7748 2.68284 71.5699 3.69084 72.1522C4.69884 72.7345 5.80764 73.0257 7.01724 73.0257ZM53.1164 36.1377C54.326 36.1377 55.4348 36.4288 56.4428 37.0112C57.4508 37.5935 58.246 38.3886 58.8284 39.3965C59.4108 40.4043 59.702 41.513 59.702 42.7224C59.702 45.9028 58.75 48.6241 56.846 50.8862C54.942 53.1483 52.3324 54.6601 49.0172 55.4216C49.958 53.1819 50.4284 50.8526 50.4284 48.4337V36.1377H53.1164ZM10.9148 48.4337V32.7109C10.9148 32.3526 11.0492 32.0502 11.318 31.8038C11.5868 31.5575 11.9004 31.4343 12.2588 31.4343H46.5308C46.8892 31.4343 47.1916 31.5575 47.438 31.8038C47.6844 32.0502 47.8076 32.3526 47.8076 32.7109V48.4337C47.8076 51.4349 47.0124 54.2233 45.422 56.799C43.8316 59.3747 41.7148 61.4128 39.0716 62.9134C36.4284 64.414 33.5388 65.1643 30.4028 65.1643H28.3196C25.1836 65.1643 22.294 64.414 19.6508 62.9134C17.0076 61.4128 14.8908 59.3747 13.3004 56.799C11.71 54.2233 10.9148 51.4349 10.9148 48.4337Z" fill="white"/>
</g>
<defs>
<clipPath id="clip0_94_1150">
<rect width="67.2" height="77.26" fill="white" transform="matrix(1 0 0 -1 0.431641 78.0601)"/>
</clipPath>
</defs>
</svg>
