<svg width="46" height="69" viewBox="0 0 46 69" fill="none" xmlns="http://www.w3.org/2000/svg">
<path d="M42.5676 24.2842C40.7308 21.059 38.1324 18.3938 34.7724 16.2884L34.638 16.2212C31.502 14.3399 28.0972 13.2872 24.4236 13.0633V7.88953C24.4236 6.63529 24.8492 5.58263 25.7004 4.73154C26.5516 3.88045 27.582 3.4549 28.7916 3.4549C29.15 3.4549 29.4636 3.32052 29.7324 3.05175C30.0012 2.78299 30.1356 2.46943 30.1356 2.11108C30.1356 1.75272 30.0012 1.45036 29.7324 1.20399C29.4636 0.957626 29.15 0.834442 28.7916 0.834442C27.5372 0.834442 26.3724 1.14799 25.2972 1.77512C24.222 2.40224 23.3708 3.26453 22.7436 4.36198C22.1164 5.45944 21.8028 6.63529 21.8028 7.88953V13.0633H21.534C18.846 13.2424 16.27 13.8919 13.806 15.0118C11.342 16.1317 9.14677 17.6547 7.22037 19.5808C5.11477 21.6861 3.49077 24.105 2.34837 26.8375C1.20597 29.5699 0.634766 32.4368 0.634766 35.438V36.2443C0.634766 36.4682 0.690766 36.681 0.802766 36.8826C0.914766 37.0842 1.06037 37.2297 1.23957 37.3193C1.91157 37.7673 2.98677 38.3272 4.46517 38.9991L4.86837 39.1335C4.50997 42.0003 4.70037 44.8 5.43957 47.5324C6.17877 50.2648 7.42197 52.7957 9.16917 55.125L9.63957 55.7297C9.90837 56.0881 10.2668 56.2673 10.7148 56.2673H10.782C11.3196 56.2225 12.0812 56.1105 13.0668 55.9313C13.8284 58.4846 15.0716 60.7803 16.7964 62.8184C18.5212 64.8566 20.5932 66.458 23.0124 67.6226L23.7516 67.9586C23.9308 68.0034 24.0652 68.0257 24.1548 68.0257C24.4684 68.0257 24.7148 67.9586 24.894 67.8242C27.806 65.9428 30.046 63.4119 31.614 60.2316C32.4652 58.5742 33.0252 56.7152 33.294 54.6547L34.1676 54.7891C34.4812 54.7891 34.7612 54.6771 35.0076 54.4531C35.254 54.2291 35.4108 53.938 35.478 53.5796C35.5452 53.2213 35.4556 52.9077 35.2092 52.6389C34.9628 52.3702 34.6604 52.2134 34.302 52.1686C32.2412 51.855 30.4268 51.3623 28.8588 50.6904L27.918 50.2872L26.91 49.7497L25.8348 49.0778C25.79 49.033 25.678 48.9658 25.4988 48.8762L25.4316 48.809V48.7418C25.4764 48.7418 25.4988 48.7194 25.4988 48.6747C25.678 48.4955 25.8124 48.3387 25.902 48.2043L25.9692 48.1371C26.014 48.1371 26.0364 48.1147 26.0364 48.0699C26.2156 47.8908 26.3276 47.7564 26.3724 47.6668L26.5068 47.4652C26.6412 47.3308 26.7532 47.174 26.8428 46.9949L27.3804 46.2558C27.3804 46.211 27.4028 46.1662 27.4476 46.1214C27.4924 46.0766 27.5596 45.987 27.6492 45.8526L27.918 45.3823C27.9628 45.2479 28.03 45.1359 28.1196 45.0463L28.1868 44.9119C28.3212 44.688 28.4332 44.464 28.5228 44.24L28.59 44.1728L28.8588 43.6353L29.1276 42.9634L29.262 42.7618L29.4636 42.2243C29.4636 42.1795 29.486 42.1347 29.5308 42.0899L29.7996 41.2836L29.8668 41.0148L30.0012 40.7461V40.5445C30.046 40.5445 30.0684 40.5221 30.0684 40.4773C30.0684 40.3877 30.0908 40.3429 30.1356 40.3429L31.2108 40.4101C31.2108 40.4549 31.2332 40.4773 31.278 40.4773H31.95C32.0844 40.5221 32.286 40.5445 32.5548 40.5445H34.302C34.4812 40.5445 34.638 40.5221 34.7724 40.4773H34.9068C35.2204 40.4773 35.4444 40.4549 35.5788 40.4101H35.9148C36.766 40.3205 37.3932 40.2309 37.7964 40.1414C37.7964 41.7539 37.55 43.4337 37.0572 45.1807C36.9676 45.5391 37.0124 45.875 37.1916 46.1886C37.3708 46.5021 37.6396 46.7037 37.998 46.7933C38.3564 46.8829 38.6924 46.8381 39.006 46.6589C39.3196 46.4797 39.5212 46.211 39.6108 45.8526C40.238 43.7473 40.5068 41.5972 40.4172 39.4023C42.1644 38.8199 43.6652 38.1256 44.9196 37.3193C45.0988 37.2297 45.2444 37.0842 45.3564 36.8826C45.4684 36.681 45.5244 36.4682 45.5244 36.2443V35.438C45.5244 31.4065 44.5388 27.6886 42.5676 24.2842ZM21.8028 15.6837V19.7152C21.8028 20.0736 21.926 20.3871 22.1724 20.6559C22.4188 20.9246 22.7212 21.059 23.0796 21.059C23.438 21.059 23.7516 20.9246 24.0204 20.6559C24.2892 20.3871 24.4236 20.0736 24.4236 19.7152V15.6837C27.4252 15.9077 30.158 16.714 32.622 18.1026V19.4464C32.622 19.4464 32.622 19.4688 32.622 19.5136C32.622 19.5584 32.5996 19.6256 32.5548 19.7152V20.0512C32.5548 20.1855 32.5324 20.2975 32.4876 20.3871V20.7231L32.4204 20.9918C32.4204 21.171 32.398 21.3054 32.3532 21.395V21.6637C32.3084 21.7533 32.286 21.8653 32.286 21.9997C32.2412 22.0445 32.2076 22.1229 32.1852 22.2349C32.1628 22.3469 32.1516 22.47 32.1516 22.6044L32.0172 22.9404C32.0172 23.0748 31.9948 23.1867 31.95 23.2763L31.8828 23.5451C31.838 23.6347 31.8156 23.7467 31.8156 23.8811L31.6812 24.1498L31.614 24.4858L31.2108 25.4265C31.166 25.5608 31.1436 25.6504 31.1436 25.6952L30.4044 27.1734C30.3596 27.3078 30.3148 27.4086 30.27 27.4758C30.2252 27.543 30.1804 27.6214 30.1356 27.711L30.0012 27.9797C29.9116 28.0693 29.8668 28.1589 29.8668 28.2485L29.6652 28.5173C29.5756 28.6068 29.5308 28.6964 29.5308 28.786L28.7916 29.8611C28.702 29.9507 28.6348 30.0403 28.59 30.1298L28.3884 30.3314C28.3436 30.421 28.2764 30.5106 28.1868 30.6002C28.0972 30.6898 28.03 30.7794 27.9852 30.869L27.7836 31.0705C27.7388 31.1601 27.6604 31.2385 27.5484 31.3057C27.4364 31.3729 27.358 31.4737 27.3132 31.6081L26.6412 32.28C26.5516 32.3696 26.462 32.4368 26.3724 32.4815L26.1708 32.6831C26.126 32.7279 26.0588 32.7951 25.9692 32.8847L25.7004 33.1535C25.6108 33.1983 25.4988 33.2878 25.3644 33.4222C25.2748 33.4222 25.23 33.467 25.23 33.5566L24.0204 34.4301C23.9308 34.5197 23.7964 34.6093 23.6172 34.6989L23.0796 35.0348C20.1228 33.1983 17.7932 30.7794 16.0908 27.7782C14.3884 24.7769 13.5372 21.5518 13.5372 18.1026C16.0908 16.6692 18.846 15.8629 21.8028 15.6837ZM3.25557 35.438C3.25557 32.3024 3.94997 29.346 5.33877 26.5687C6.68277 23.8811 8.56437 21.6189 10.9836 19.7824C11.2076 23.0972 12.1484 26.2104 13.806 29.122C15.4636 32.0336 17.6588 34.4525 20.3916 36.3786C18.4652 37.2297 16.3596 37.7225 14.0748 37.8569H14.0076C13.918 37.9016 13.7612 37.924 13.5372 37.924H12.126C11.8572 37.924 11.678 37.9016 11.5884 37.8569H11.5212C8.69877 37.7225 5.94357 36.9162 3.25557 35.438ZM11.2524 53.5796V53.5124C9.77396 51.5863 8.70997 49.4474 8.06037 47.0957C7.41077 44.744 7.19797 42.3363 7.42197 39.8726C8.13877 40.0518 8.65396 40.1638 8.96757 40.2085L9.70677 40.3429L10.5804 40.4101C10.7148 40.4549 10.894 40.4773 11.118 40.4773L11.8572 40.5445H13.5372C13.806 40.5445 13.9852 40.5221 14.0748 40.4773H14.2092C14.5676 40.4773 15.0604 40.4325 15.6876 40.3429C16.9868 43.7473 18.9356 46.6365 21.534 49.0106L21.198 49.2122L20.9964 49.4138C20.7276 49.5929 20.5484 49.7497 20.4588 49.8841C20.3244 49.9289 20.1676 50.0409 19.9884 50.2201C19.8988 50.2201 19.854 50.2424 19.854 50.2872C19.6748 50.3768 19.5404 50.4664 19.4508 50.556H19.3836C17.0092 52.1686 14.2988 53.1765 11.2524 53.5796ZM26.3724 52.4374L26.5068 52.5046L26.7756 52.5717C26.9996 52.7061 27.3356 52.8629 27.7836 53.0421L28.1196 53.1765L28.8588 53.5124L29.5308 53.714L29.6652 53.7812L30.27 53.9828C30.4044 53.9828 30.5164 54.0276 30.606 54.1171H30.7404C30.4716 55.8641 29.9788 57.5215 29.262 59.0893C28.0524 61.553 26.3276 63.5911 24.0876 65.2037C22.0268 64.2182 20.2684 62.8632 18.8124 61.1386C17.3564 59.4141 16.2924 57.4543 15.6204 55.2594C17.3676 54.6771 19.07 53.8708 20.7276 52.8405L21.3324 52.4374C21.3772 52.4374 21.3996 52.415 21.3996 52.3702L22.0716 51.8998C22.1612 51.855 22.2732 51.7655 22.4076 51.6311H22.4748C22.4748 51.6311 22.4748 51.6087 22.4748 51.5639L22.8108 51.3623C22.8108 51.3175 22.8332 51.2839 22.878 51.2615C22.9228 51.2391 22.99 51.1831 23.0796 51.0935L23.214 50.9592C23.2588 50.9592 23.3036 50.9368 23.3484 50.892C23.3932 50.8472 23.4604 50.78 23.55 50.6904C23.5948 50.6904 23.662 50.7352 23.7516 50.8248L24.1548 51.0935L24.3564 51.2279L25.1628 51.7655H25.2972C25.4764 51.8998 25.7452 52.079 26.1036 52.303L26.3724 52.4374ZM27.5148 39.8054C27.5148 39.8502 27.4924 39.9622 27.4476 40.1414L27.3132 40.4773C27.3132 40.5221 27.2908 40.5445 27.246 40.5445C26.4396 43.0082 25.1404 45.2031 23.3484 47.1293C21.1532 45.1583 19.4732 42.7394 18.3084 39.8726C20.0108 39.4694 21.6012 38.8647 23.0796 38.0584C23.2588 38.1032 23.438 38.1928 23.6172 38.3272H23.6844L23.7516 38.3944C23.7964 38.3944 23.886 38.4168 24.0204 38.4616L24.0876 38.5288C24.1324 38.5736 24.1996 38.596 24.2892 38.596L24.6252 38.7975C24.7148 38.7975 24.782 38.8199 24.8268 38.8647L25.6332 39.2007L26.238 39.4023C26.3276 39.4023 26.3948 39.4246 26.4396 39.4694L26.7756 39.5366C26.8204 39.5814 26.8652 39.6038 26.91 39.6038C26.9548 39.6038 26.9772 39.6038 26.9772 39.6038L27.246 39.671L27.5148 39.8054ZM42.9036 35.438C41.5148 36.2443 39.9916 36.849 38.334 37.2521C38.334 37.2969 38.334 37.3193 38.334 37.3193H38.2668C38.1772 37.3193 37.998 37.3641 37.7292 37.4537L37.1244 37.5881L36.5196 37.6553C36.4748 37.6553 36.43 37.6777 36.3852 37.7225C36.1612 37.7225 36.0044 37.7449 35.9148 37.7897H35.7132C35.534 37.7897 35.3996 37.8121 35.31 37.8569H34.638L34.302 37.924H32.8908C31.4124 37.8345 30.1356 37.6777 29.0604 37.4537H28.9932L28.8588 37.3865L27.918 37.1177C27.7836 37.1177 27.694 37.0954 27.6492 37.0506L26.7084 36.7818L26.3052 36.5802C26.2156 36.5802 26.126 36.5578 26.0364 36.513L25.7676 36.3786C26.126 36.1547 26.6188 35.7739 27.246 35.2364C27.3356 35.1916 27.47 35.0796 27.6492 34.9004L27.7836 34.8332C27.8732 34.7437 27.918 34.6765 27.918 34.6317L28.0524 34.5645L28.6572 34.0269C28.6572 34.0269 28.6572 34.0157 28.6572 33.9934C28.6572 33.971 28.6572 33.9598 28.6572 33.9598C28.8812 33.7806 29.1724 33.467 29.5308 33.0191H29.598C31.2556 31.1825 32.5548 29.1332 33.4956 26.8711C34.4364 24.609 35.0188 22.2461 35.2428 19.7824C37.662 21.6637 39.5436 23.9818 40.8876 26.7367C42.2316 29.4915 42.9036 32.392 42.9036 35.438ZM36.8556 49.2122C36.542 49.033 36.2172 49.0106 35.8812 49.145C35.5452 49.2794 35.2876 49.5033 35.1084 49.8169C34.9292 50.1305 34.8956 50.4552 35.0076 50.7912C35.1196 51.1271 35.3548 51.3847 35.7132 51.5639C35.8476 51.6535 36.038 51.6983 36.2844 51.6983C36.5308 51.6983 36.766 51.6311 36.99 51.4967C37.214 51.3623 37.3708 51.1831 37.4604 50.9592C37.6396 50.6008 37.662 50.2536 37.5276 49.9177C37.3932 49.5817 37.1692 49.3466 36.8556 49.2122ZM23.0796 22.2685C22.7212 22.2685 22.4188 22.3917 22.1724 22.638C21.926 22.8844 21.8028 23.1867 21.8028 23.5451V23.6123C21.8028 23.9706 21.926 24.2842 22.1724 24.553C22.4188 24.8217 22.7212 24.9561 23.0796 24.9561C23.438 24.9561 23.7516 24.8217 24.0204 24.553C24.2892 24.2842 24.4236 23.9706 24.4236 23.6123V23.5451C24.4236 23.1867 24.2892 22.8844 24.0204 22.638C23.7516 22.3917 23.438 22.2685 23.0796 22.2685Z" fill="white"/>
</svg>
