<svg width="91" height="33" viewBox="0 0 91 33" fill="none" xmlns="http://www.w3.org/2000/svg">
<path d="M90.8372 16.6552C89.9737 19.1462 89.0563 21.523 88.0715 23.7649C86.9989 26.2248 85.8454 28.529 84.6042 30.6256C84.3546 31.0408 84.0039 31.2899 83.6329 31.3003C58.7416 32.4212 33.4928 32.3174 7.90671 31.0512C7.5492 31.0304 7.20517 30.7917 6.96233 30.3973C4.12918 25.7785 1.67378 21.0767 0.129032 16.1466C-0.0733358 15.5031 -0.0328621 14.7454 0.216725 14.1434C0.473058 13.531 0.736137 12.929 1.00596 12.3374C2.83402 8.32062 4.99936 4.59448 7.44127 1.07592C7.69085 0.733402 8.01464 0.525818 8.34518 0.515438C33.5468 -0.252625 58.5729 -0.159212 83.4372 0.774919C83.8217 0.795678 84.186 1.05516 84.4356 1.51185C87.0461 6.19288 89.3262 10.6767 90.8237 14.652C91.053 15.2643 91.0598 16.022 90.8372 16.6552Z" fill="url(#paint0_linear_94_1599)"/>
<path d="M90.8351 16.6552C90.7002 17.0496 90.5585 17.4336 90.4236 17.828C90.3292 18.0979 90.174 18.3158 90.0931 18.5961C89.5872 20.2464 88.6765 21.3881 87.7456 22.4468C86.754 23.5781 85.7017 24.7613 85.189 26.4947C85.297 26.1937 85.4049 25.9031 85.5128 25.6021C86.6528 22.4364 87.7861 19.2811 88.8317 16.0428C88.6765 15.6276 88.5079 15.2124 88.3392 14.8076C87.6647 13.1781 86.8822 11.6524 86.012 10.2512C85.614 9.61803 85.1621 9.04717 84.7911 8.37252C84.5347 7.92621 84.184 7.82242 83.8197 7.65635C82.3087 6.97132 80.7369 6.77412 79.172 6.59767C59.4748 4.30386 39.6765 3.5358 19.9591 5.32102C14.1578 5.83999 8.55898 8.66314 3.25694 12.327C2.95339 12.5346 2.71054 12.9186 2.43397 13.2196C2.16415 13.5206 1.81338 13.749 1.48959 13.5725C1.17255 13.3961 1.01065 12.8667 1.00391 12.3374C2.83197 8.32062 4.9973 4.59448 7.43921 1.07592C7.6888 0.733402 8.01259 0.525818 8.34312 0.515438C33.5447 -0.252625 58.5709 -0.159212 83.4352 0.774919C83.8197 0.795678 84.184 1.05516 84.4335 1.51185C87.0441 6.19288 89.3241 10.6767 90.8216 14.652C91.051 15.2643 91.0577 16.022 90.8351 16.6552Z" fill="#FF3B3B"/>
<path d="M89.6571 15.6898C87.7683 21.0974 85.7918 25.5397 83.6063 29.2243C76.3817 29.5565 69.0493 29.7744 61.6831 29.8886C57.4198 29.9717 53.1499 30.0028 48.8799 30.0028C48.401 30.0028 47.9288 30.0028 47.4498 29.9924C34.4915 29.982 21.2094 29.6291 7.95432 28.9752C4.74341 23.7545 2.64553 19.3952 1.34363 15.2539C3.18518 10.9154 5.54614 6.64951 8.3658 2.60161C8.50071 2.60161 8.62888 2.59123 8.76379 2.59123C19.894 2.24871 31.139 2.07227 42.2085 2.07227C45.8106 2.07227 49.4195 2.09302 53.0419 2.13454C58.634 2.18644 64.2396 2.27985 69.825 2.42516C70.9178 2.44592 72.0106 2.47706 73.0966 2.50819C73.1101 2.51857 73.1236 2.51857 73.1371 2.50819C73.5756 2.52895 74.0208 2.53933 74.4592 2.54971C77.4273 2.63274 80.3886 2.73654 83.3432 2.85071H83.4039C83.4511 2.93374 83.4983 3.01678 83.5456 3.09981C84.5844 4.97845 85.5018 6.68065 86.3045 8.26867C87.7548 11.1126 88.8409 13.5309 89.6571 15.6898Z" fill="url(#paint1_linear_94_1599)"/>
<path d="M86.1545 17.5477C73.5335 18.2846 60.8922 18.6687 48.2577 18.7413H47.745C33.5928 18.8036 19.4405 18.4196 5.30171 17.5892C4.51922 17.5373 3.30501 17.4958 2.81933 16.3541C2.53601 15.6691 2.70466 14.8595 2.92051 14.1952C3.62206 11.9533 4.51248 9.87745 5.48384 7.88464C5.94929 6.92975 6.43497 5.99562 6.9274 5.06149C7.04208 4.8539 7.12977 4.6567 7.21746 4.41797C7.48054 3.73294 8.05392 3.29702 8.47889 2.86109C8.57333 2.76767 8.66777 2.67426 8.76221 2.59123C19.8925 2.24871 31.1374 2.07227 42.2069 2.07227C55.887 2.07227 69.729 2.33175 83.3416 2.85071C83.4091 2.92336 83.4765 3.01678 83.544 3.09981L83.5642 3.13095C84.6098 4.54252 85.5069 6.2032 86.222 8.05071C86.249 8.12336 86.2759 8.19601 86.3029 8.26867C86.8628 9.73214 87.3013 11.3098 87.6116 12.9393C87.7667 13.7489 87.8477 14.5896 88.0568 15.3784C88.502 17.0495 86.9842 17.4958 86.1545 17.5477Z" fill="url(#paint2_linear_94_1599)"/>
<defs>
<linearGradient id="paint0_linear_94_1599" x1="45.4981" y1="-1.58065" x2="45.4981" y2="16.1791" gradientUnits="userSpaceOnUse">
<stop stop-color="#BE2926"/>
<stop offset="0.9944" stop-color="#93211E"/>
</linearGradient>
<linearGradient id="paint1_linear_94_1599" x1="45.4985" y1="45.4558" x2="45.4985" y2="14.1845" gradientUnits="userSpaceOnUse">
<stop offset="0.00558659" stop-color="#D32E27"/>
<stop offset="1" stop-color="#A92223"/>
</linearGradient>
<linearGradient id="paint2_linear_94_1599" x1="45.4015" y1="35.1207" x2="45.4015" y2="7.0105" gradientUnits="userSpaceOnUse">
<stop stop-color="#EF4623"/>
<stop offset="0.9944" stop-color="#A92223"/>
</linearGradient>
</defs>
</svg>
