<svg width="190" height="61" viewBox="0 0 190 61" fill="none" xmlns="http://www.w3.org/2000/svg">
<g clip-path="url(#clip0_49_898)">
<path opacity="0.3" d="M189.876 27.0687C189.691 26.2309 189.296 25.4423 188.963 24.6538C188.951 24.6168 188.926 24.5676 188.914 24.5306C188.482 23.5326 188 22.5593 187.482 21.5983C187.223 21.1178 186.951 20.6496 186.68 20.1691C186.63 20.0705 186.569 19.9966 186.507 19.9226C186.433 19.8364 186.396 19.7378 186.346 19.6393C186.223 19.4052 186.075 19.1957 185.927 18.9863C185.421 18.2717 184.902 17.5694 184.248 16.9903C183.927 16.7069 183.582 16.4605 183.211 16.2634C183.002 16.1525 182.792 16.0662 182.57 15.9923C182.36 15.9307 182.15 15.9061 181.94 15.8568C181.94 15.7582 181.965 15.635 181.977 15.5365C181.99 15.4256 181.99 15.3147 181.977 15.1915C181.965 14.9574 181.928 14.7233 181.878 14.5015C181.767 14.0456 181.595 13.6144 181.385 13.1955C181.15 12.7273 180.891 12.2838 180.607 11.8526C180.459 11.6308 180.311 11.4213 180.151 11.2119C180.039 11.0517 179.99 10.8669 179.891 10.6944C179.805 10.5466 179.706 10.3987 179.62 10.2509C179.558 10.1523 179.509 10.066 179.459 9.96748C179.398 9.83195 179.274 9.73339 179.188 9.6225C178.99 9.38841 178.781 9.15431 178.583 8.9079C177.09 7.08443 175.559 5.26096 173.732 3.73319C172.943 3.06787 172.091 2.46415 171.19 1.97132C170.931 1.82347 170.672 1.70026 170.412 1.58938C168.475 0.726924 166.45 0.591396 164.315 0.554433C162.069 0.517471 159.81 0.480509 157.564 0.443547C155.305 0.406585 153.059 0.369622 150.8 0.344981C148.541 0.308019 146.295 0.283377 144.036 0.258736C141.778 0.234094 139.519 0.209453 137.26 0.184811C135.002 0.16017 132.743 0.135528 130.484 0.123207C128.226 0.098566 125.967 0.0862452 123.696 0.0739245C121.437 0.0616037 119.166 0.049283 116.908 0.0369622C114.637 0.0246415 112.378 0.0123207 110.107 0.0123207C107.824 0.0123207 105.553 0.0123207 103.294 0C101.023 0 98.7519 0 96.4809 0C94.2099 0 91.9389 0 89.6679 0.0123207C87.3969 0.0123207 85.1258 0.0246415 82.8425 0.0369622C80.5715 0.049283 78.2881 0.0616037 76.0171 0.0616037C73.7337 0.0739245 71.4627 0.0862452 69.1794 0.098566C66.896 0.110887 64.625 0.135528 62.3416 0.147849C60.0583 0.17249 57.7749 0.184811 55.4916 0.209453C53.2082 0.234094 50.9249 0.258736 48.6415 0.283377C43.3219 0.357302 38.0517 0.418905 32.6703 0.49283C28.4616 0.554433 23.6233 0.529792 20.1057 3.28964C18.0445 4.90366 16.6745 6.48071 14.9712 8.43971C13.2063 10.485 11.503 12.5795 9.88614 14.7356C8.36801 16.7562 6.89926 18.8261 5.57862 20.9822C4.39374 22.9289 3.09778 24.7893 1.9129 26.7237C0.900819 28.3624 -0.123605 30.1981 0.0121617 32.1818C0.098559 33.5494 0.937847 34.9786 1.5056 36.2107C1.80182 36.8513 2.18444 37.4304 2.53003 38.0341C2.86327 38.6132 3.23355 39.1676 3.65319 39.6851C3.90004 39.9931 4.17157 40.2888 4.51716 40.4613C5.18366 40.8186 6.04763 40.6585 6.65241 41.0774C6.22042 41.139 5.91186 41.5702 5.86249 42.0014C5.81312 42.4326 5.94889 42.8639 6.097 43.2705C6.61538 44.6873 7.29422 46.0426 8.09648 47.324C8.89874 48.6053 9.91082 49.6649 10.8735 50.8231C12.009 52.1907 13.1816 53.509 14.4035 54.7903C15.5884 56.0224 16.7979 57.3654 18.2296 58.3757C20.6488 60.0759 23.4382 59.9158 26.2646 59.9774C35.2499 60.1868 44.2599 60.6181 53.2576 60.6181C64.662 60.8275 76.0788 60.9507 87.4833 60.9877C98.863 61.0246 110.243 60.9754 121.635 60.8275C132.99 60.6797 144.345 60.4579 155.7 60.1252C158.909 60.039 162.229 59.9774 165.451 59.5338C167.043 59.3121 168.302 59.0656 169.635 58.1539C171.647 56.7863 173.214 54.5809 174.782 52.7574C175.806 51.5746 176.806 50.3795 177.781 49.1598C178.669 48.0632 179.644 47.0899 179.99 45.71C180.039 45.5128 180.076 45.3034 180.2 45.1309C180.336 44.9461 180.545 44.8229 180.743 44.6997C182.162 43.8126 183.051 42.1369 183.915 40.757C185.445 38.3052 186.852 35.7671 188.235 33.229C189.284 31.3933 190.358 29.2618 189.876 27.0687Z" fill="url(#paint0_linear_49_898)"/>
<path d="M188.247 33.2537C187.976 33.7342 187.717 34.227 187.445 34.7075C187.334 34.9047 187.223 35.1018 187.112 35.2989C186.297 36.7528 185.421 38.182 184.458 39.5496C183.94 40.2888 183.397 41.0034 182.829 41.7057C182.298 42.3464 181.854 42.9994 181.064 43.3567C180.928 43.4183 180.792 43.4676 180.657 43.5045C180.2 43.6401 179.719 43.6894 179.237 43.7263C177.867 43.8495 176.51 43.9851 175.164 44.1083C175.127 44.1083 175.09 44.1206 175.053 44.1206C174.313 44.1945 173.584 44.2561 172.844 44.33C173.831 44.2808 174.819 44.2931 175.806 44.367C177.225 44.4656 178.62 44.6873 180.003 45.0077C179.669 45.8825 179.176 46.7079 178.571 47.4225C176.645 49.6649 174.806 52.2892 172.326 53.9895C170.993 54.9012 169.721 55.1476 168.141 55.3694C164.92 55.813 161.588 55.8746 158.391 55.9608C147.036 56.2812 135.681 56.5153 124.326 56.6631C118.796 56.7247 113.291 56.774 107.762 56.811C106.392 56.811 105.034 56.8233 103.664 56.8233C99.1717 56.8356 94.679 56.8356 90.174 56.8233C78.7572 56.7863 67.3528 56.6631 55.936 56.4536C53.1466 56.4536 50.3449 56.4167 47.5555 56.3551C41.3472 56.2196 35.1513 55.9731 28.9554 55.8253C26.1413 55.7637 23.3396 55.9115 20.9204 54.2113C19.4887 53.2133 18.2668 51.8703 17.0943 50.6259C16.9708 50.5027 16.8474 50.3672 16.7363 50.244C15.6749 49.1105 14.6381 47.9523 13.6384 46.7572C12.8114 45.7716 12.0092 44.7859 11.1452 43.8249C10.7873 43.406 10.4787 42.9378 10.1948 42.4573C9.8122 41.8166 9.36787 41.1882 9.21976 40.449C9.19508 40.3258 9.18274 40.1779 9.26913 40.0794C9.34319 39.9931 9.45427 39.9685 9.56535 39.9562C11.5895 39.5989 13.6877 39.796 15.6749 39.4017C16.0822 39.3278 16.4771 39.2292 16.8598 39.0814C15.0207 39.0691 13.194 39.0691 11.355 39.0444C10.8983 39.0444 10.4293 39.0321 9.97266 38.9828C9.79986 38.9582 9.62707 38.9336 9.44193 38.8966C8.63967 38.6995 7.89912 38.2682 7.30668 37.6768C7.01046 37.3811 6.76361 37.0362 6.55379 36.6665C5.73919 35.1388 4.91224 33.6233 4.18404 32.0463C3.61628 30.8142 2.777 29.385 2.6906 28.0174C2.67826 27.9434 2.67826 27.8818 2.67826 27.8079C2.65357 26.8715 2.87574 25.9598 3.24601 25.085C3.83845 23.6312 4.80116 22.2513 5.56639 20.9945C6.88704 18.8384 8.35579 16.7685 9.87392 14.7479C11.4908 12.5918 13.1817 10.4973 14.959 8.45203C15.2799 8.07009 15.6008 7.71279 15.9094 7.36781C17.2053 5.88932 18.4272 4.60796 20.0811 3.30196C23.6111 0.542113 28.4493 0.566754 32.6458 0.50515C38.0394 0.418905 43.3097 0.369622 48.6293 0.308019C50.9126 0.271056 53.196 0.246415 55.4793 0.221773C57.7627 0.197132 60.0461 0.184811 62.3294 0.16017C64.6128 0.147849 66.8838 0.123207 69.1671 0.098566C71.4505 0.0862452 73.7215 0.0739245 76.0049 0.0616037C78.2882 0.049283 80.5469 0.0369622 82.8303 0.0246415C85.1136 0.0123207 87.3723 0.0123207 89.6556 0.0123207C91.939 0 94.21 0 96.481 0C98.7521 0 101.023 0 103.294 0.0123207C105.553 0.0123207 107.824 0.0246415 110.095 0.0246415C112.353 0.0369622 114.624 0.0369622 116.883 0.049283C119.154 0.0616037 121.413 0.0739245 123.671 0.0862452C125.93 0.098566 128.189 0.123207 130.46 0.147849C132.719 0.16017 134.977 0.184811 137.236 0.209453C139.495 0.234094 141.753 0.258736 144.012 0.295698C146.271 0.320339 148.517 0.357302 150.776 0.381943C153.034 0.418905 155.281 0.443547 157.539 0.480509C159.798 0.517471 162.044 0.554433 164.291 0.591396C166.438 0.628358 168.462 0.763886 170.4 1.62634C170.659 1.73722 170.918 1.87275 171.178 2.00828C173.301 3.17875 175.066 4.89134 176.67 6.69016C177.04 7.10907 177.423 7.52797 177.781 7.9592C178.423 8.68612 179.04 9.43769 179.571 10.2385C180.212 11.1996 180.817 12.1729 181.373 13.1832C181.521 13.4543 181.669 13.8116 181.459 14.0456C181.373 14.1565 181.237 14.2058 181.101 14.2428C181.089 14.2551 181.064 14.2551 181.052 14.2551C179.102 14.7726 177.09 15.0559 175.066 15.0929C175.967 15.2408 176.868 15.3763 177.781 15.4625C178.978 15.5981 180.175 15.672 181.373 15.6843C182.237 15.6966 183.162 15.6966 183.903 16.1402C183.915 16.1525 183.927 16.1525 183.94 16.1648C184.841 16.7192 185.334 17.902 185.841 18.7891C186.408 19.7871 186.976 20.7974 187.605 21.7708C188.062 22.4977 188.408 23.3232 188.729 24.1117C188.815 24.2965 188.877 24.469 188.951 24.6538C189.284 25.4547 189.679 26.2309 189.864 27.0687C190.358 29.2618 189.284 31.3933 188.247 33.2537Z" fill="url(#paint1_linear_49_898)"/>
<path d="M183.94 16.1525C179.978 17.0519 174.695 16.4728 171.832 16.7193C168.623 17.0026 165.426 17.4339 162.229 17.8404C160.551 18.0622 158.86 18.2717 157.169 18.4688C155.824 18.6166 154.552 18.7029 153.294 19.1834C152.022 19.6639 150.64 19.553 149.307 19.6023C147.628 19.6516 145.95 19.7255 144.271 19.8118C137.557 20.1567 130.843 20.7605 124.178 21.6352C120.845 22.0665 117.513 22.5716 114.205 23.1384C112.551 23.4217 110.897 23.7174 109.243 24.0378C108.416 24.1979 107.589 24.3581 106.762 24.5183C106.33 24.6045 105.911 24.6908 105.479 24.777C105.183 24.8386 104.677 25.0481 104.393 24.9988C106.071 25.2822 107.688 25.9352 109.095 26.8962C94.3829 29.1016 79.5473 30.5801 64.6869 31.307C61.7864 31.4549 58.8736 31.5657 55.9855 31.3193C54.5661 31.1961 53.1467 30.9867 51.7644 30.654C49.8389 30.1858 47.7777 30.4199 45.7906 30.3953C42.2236 30.346 38.6443 30.2351 35.0773 30.0503C28.7333 29.7053 22.4016 29.2741 16.0576 28.8675C11.8611 28.5964 6.96119 28.8059 2.70304 27.7833C2.67835 26.8469 2.90052 25.9352 3.27079 25.0604C7.93624 24.5429 13.1941 25.3438 17.6498 25.4177C23.9938 25.5286 30.3255 25.4054 36.6695 25.2452C49.086 24.9125 61.5026 25.122 73.9314 24.6168C82.6576 24.2595 91.2726 23.2739 99.8753 22.0541C94.1607 22.0172 88.4338 21.7954 82.7069 21.3519C70.2657 20.3908 57.6764 18.8384 45.1982 19.4175C38.8665 19.7132 32.6829 19.2204 26.3759 18.6783C23.3026 18.4072 20.1306 18.1731 17.119 17.4339C14.6012 16.8178 12.3055 15.6597 9.91104 14.7233C11.5279 12.5672 13.2188 10.4726 14.9961 8.42739C15.317 8.04545 15.6379 7.68815 15.9465 7.34317C17.3042 7.14603 18.6865 7.02283 20.1059 7.03515C23.784 7.07211 27.425 7.67583 31.0784 8.10705C37.8297 8.94486 44.1861 10.5958 50.814 12.1113C57.6517 13.6637 64.798 14.2058 71.7592 15.056C78.4982 15.8814 85.2371 16.4728 92.0255 16.6946C104.479 17.1135 117.303 16.1895 129.584 13.984C141.531 11.8279 153.565 9.73339 165.698 8.95718C169.487 8.71077 173.708 8.05777 177.769 7.9592C178.41 8.68613 179.028 9.43769 179.558 10.2385C180.2 11.1996 180.805 12.1729 181.36 13.1832C181.508 13.4543 181.657 13.8116 181.447 14.0457C181.348 14.1689 181.188 14.2181 181.039 14.2551C179.089 14.7726 177.077 15.056 175.053 15.0929C177.139 15.4502 179.25 15.6597 181.36 15.6843C182.224 15.6966 183.15 15.6966 183.891 16.1402C183.915 16.1402 183.928 16.1525 183.94 16.1525ZM189.864 27.0687C189.679 26.2309 189.297 25.4423 188.951 24.6538C188.877 24.4813 188.803 24.2965 188.729 24.1117C187.174 24.0747 185.631 24.0747 184.088 24.0624C177.843 24.0008 171.597 24.0378 165.352 24.1856C152.343 24.4936 139.816 26.465 127.066 29.003C124.276 29.5575 121.45 29.9024 118.636 30.346C115.686 30.8142 112.736 31.2701 109.786 31.7259C103.01 32.7732 96.2219 33.8204 89.4459 34.8431C86.0517 35.3605 82.6576 35.8657 79.2634 36.3708C77.5725 36.6296 75.8692 36.876 74.1783 37.1224C72.5367 37.3688 70.8458 37.7631 69.1919 37.8616C75.7211 37.529 82.2379 38.6255 88.6437 39.9192C83.4475 40.3628 78.276 41.0034 73.1168 41.8166C69.7967 42.3464 66.4889 42.9501 63.1935 43.6278C61.5519 43.9727 59.9227 44.3916 58.2812 44.6997C57.7628 44.7982 57.2814 44.7613 56.7507 44.7613C55.4424 44.7366 54.1341 45.328 52.9122 45.673C45.914 47.6813 38.8294 48.1741 31.6585 49.1598C26.6845 49.8497 21.7104 49.9853 16.7364 50.2194C16.8598 50.3426 16.9833 50.4781 17.0944 50.6013C18.2792 51.8334 19.4888 53.1763 20.9205 54.1866C23.3396 55.8869 26.1414 55.7391 28.9555 55.8007C35.1514 55.9485 41.3473 56.1949 47.5556 56.3304C59.5154 54.5686 70.1423 49.1351 81.5838 45.2048C93.9386 40.9542 106.948 38.3668 119.882 36.7528C127.671 35.7794 135.52 35.8534 143.383 36.0259C128.633 40.2765 116.106 48.1371 103.664 56.7986C105.034 56.7863 106.392 56.7863 107.762 56.7863C119.339 48.7532 133.151 43.0117 146.912 40.8925C155.268 39.5989 163.809 40.0424 172.239 39.833C176.312 39.7221 180.385 39.6358 184.446 39.5373C185.409 38.1697 186.285 36.7405 187.1 35.2866C187.211 35.0895 187.322 34.9047 187.433 34.6952C187.704 34.2147 187.976 33.7219 188.235 33.2414C189.284 31.3933 190.358 29.2618 189.864 27.0687Z" fill="url(#paint2_linear_49_898)"/>
<path d="M180.793 25.5039C181.126 26.5635 181.706 27.5491 182.483 28.3623C182.619 28.5102 182.767 28.6703 182.767 28.8675C182.767 28.9784 182.718 29.0892 182.669 29.1878C182.15 30.2104 181.644 31.2207 181.126 32.2434C180.867 32.7608 180.607 33.2783 180.348 33.7958C180.237 34.0175 180.114 34.2393 180.04 34.4857C179.879 34.9786 179.509 35.3728 179.188 35.7917C178.583 36.5679 177.954 37.4057 177.263 38.108C176.979 38.3914 176.658 38.5639 176.423 38.8842C175.72 39.8453 175.016 40.8432 174.399 41.8659C174.165 42.2601 174.14 42.6421 174.029 43.061C173.967 43.2827 173.856 43.4799 173.708 43.6647C172.98 44.6011 171.955 45.2787 171.116 46.1042C170.375 46.8311 169.721 47.6689 168.882 48.285C166.759 49.862 163.957 49.3692 161.328 49.6526C156.083 50.2316 150.776 49.7018 145.493 49.5294C137.952 49.2706 131.015 50.3795 123.474 50.2686C119.821 50.2193 116.167 50.1577 112.514 50.1084C112.86 50.7614 113.205 51.4144 113.551 52.0674C110.058 50.1824 105.923 50.0468 101.961 49.9852C97.234 49.9236 92.5069 49.9236 87.7797 49.9236C86.9651 49.9236 86.1134 49.9359 85.4099 50.3179C84.6941 50.7121 84.2004 51.6116 84.546 52.3508C84.2251 50.8107 82.2009 50.4534 80.6211 50.4411C66.1927 50.2686 51.7644 50.1084 37.336 49.9359C35.6451 49.9113 33.9542 49.899 32.2633 49.8004C30.6587 49.7142 29.0542 49.5663 27.4744 49.2953C26.6845 49.1597 25.9069 48.9996 25.1293 48.7901C24.7467 48.6915 24.3641 48.5807 23.9815 48.4575C23.5124 48.3096 23.1792 48.0878 22.7719 47.8045C22.525 47.632 22.2412 47.4595 22.0807 47.2007C21.4019 46.0672 20.5749 44.9953 19.748 43.9604C19.1432 43.2088 18.5014 42.4819 17.8472 41.7673C17.514 41.41 17.1808 41.0404 16.8475 40.6831C16.0823 39.8699 15.5639 38.9089 15.0085 37.9355C13.0954 34.5473 11.5402 30.9743 9.99744 27.4013C14.0581 32.5267 18.7359 37.4057 22.7966 42.5189C23.8827 43.8865 25.0182 45.3033 26.5734 46.0919C28.1656 46.905 30.0169 46.979 31.8066 47.0406C75.0299 48.4698 118.327 48.1371 161.526 46.0672C163.92 45.9563 166.401 45.8085 168.487 44.638C170.19 43.6893 171.474 42.1369 172.647 40.5845C175.979 36.186 178.682 30.5924 180.793 25.5039Z" fill="#FF3B3B"/>
<path d="M132.558 6.32048C132.2 6.81331 131.805 7.30614 131.275 7.60184C130.534 8.00842 129.633 7.98378 128.794 7.88522C128.226 7.82361 127.671 7.72505 127.115 7.61416C128.078 7.26918 129.065 7.03509 130.077 6.91188C130.336 6.87492 130.596 6.85027 130.818 6.73939C131.04 6.6285 131.2 6.43137 131.361 6.24656C131.805 5.74141 132.25 5.23626 132.719 4.75575C133.188 4.27524 133.669 3.79473 134.163 3.33886C134.298 3.21566 134.434 3.08013 134.582 2.95692C134.656 2.89532 134.73 2.83371 134.792 2.75979C134.842 2.7105 134.903 2.63658 134.977 2.61194C134.706 3.11709 134.372 3.5976 134.064 4.09043C133.755 4.58326 133.434 5.06377 133.114 5.54428C132.941 5.80301 132.756 6.06175 132.558 6.32048Z" fill="#EB924D"/>
<path d="M15.2182 18.1608C15.3046 18.1854 15.4033 18.21 15.4774 18.2716C15.6502 18.4072 15.6502 18.6536 15.6502 18.8754C15.6379 19.2819 15.6255 19.6762 15.6132 20.0828C16.1316 19.1957 16.6376 18.3086 17.119 17.4092C16.3167 16.978 15.354 16.978 14.4406 17.0026C14.0333 17.0149 13.6384 17.0149 13.2311 17.0273C13.0213 17.0273 12.8238 17.0396 12.614 17.0396C12.5152 17.0396 12.4288 17.0396 12.3301 17.0396C12.2807 17.0396 12.1079 17.0149 12.0585 17.0519C11.8734 17.2367 12.6757 17.4215 12.7497 17.4462C13.1323 17.557 13.5273 17.6679 13.9099 17.7788C14.3419 17.902 14.7739 18.0252 15.2182 18.1608Z" fill="#EB924D"/>
<path d="M20.3774 37.5166C20.0195 36.802 19.6492 36.0504 19.7232 35.2619C19.7356 35.1264 19.7603 34.9909 19.8343 34.8923C19.9577 34.7321 20.1799 34.6828 20.3897 34.6459C23.3149 34.1284 26.2647 33.7095 29.2146 33.3892C28.6222 33.1674 28.005 33.1674 27.3756 33.2044C25.3761 33.3029 23.3766 33.2906 21.3771 33.1797C20.2293 33.1181 19.0567 33.0195 17.9459 33.3399C18.4149 34.1654 18.6865 35.0894 19.0691 35.9642C19.4517 36.839 19.9577 37.7014 20.76 38.2189C20.686 37.9355 20.5008 37.763 20.3774 37.5166Z" fill="#EB924D"/>
<path d="M174.177 25.8119C174.856 25.8858 175.535 26.0214 176.139 26.3171C176.744 26.6251 177.275 27.1302 177.497 27.7709C177.707 28.3869 177.596 29.0646 177.485 29.7176C177.978 29.1755 178.336 28.5225 178.546 27.8202C178.583 27.697 178.62 27.5615 178.596 27.4383C178.571 27.3397 178.522 27.2411 178.472 27.1549C178.151 26.6251 177.83 26.0953 177.497 25.5655C177.411 25.43 177.312 25.2821 177.189 25.1836C176.991 25.0234 176.732 24.9741 176.485 24.9371C176.411 24.9248 176.337 24.9125 176.263 24.9125C175.424 24.8016 174.572 24.7893 173.72 24.8263C173.56 24.8263 173.424 24.8263 173.276 24.7893C173.116 24.7523 172.955 24.8016 172.795 24.8263C172.375 24.9002 171.955 24.9495 171.536 24.9987C171.116 25.0357 170.696 25.0727 170.277 25.085C170.067 25.0973 169.857 25.0973 169.647 25.0973C169.536 25.0973 169.437 25.0973 169.326 25.0973C169.228 25.0973 169.117 25.1096 169.018 25.0973C169.363 25.1589 169.697 25.2205 170.042 25.2821C170.462 25.3684 170.882 25.4423 171.301 25.5285C171.511 25.5655 171.721 25.6148 171.931 25.6641C172.005 25.6764 172.066 25.6887 172.14 25.6764C172.264 25.6517 172.375 25.6641 172.498 25.6764C173.004 25.701 173.51 25.738 174.017 25.7873C174.054 25.7996 174.115 25.7996 174.177 25.8119Z" fill="#EB924D"/>
<path d="M182.249 27.4629C181.632 25.9721 181.089 24.9002 180.459 23.8652C179.571 22.3867 178.571 20.8713 177.485 19.3558C174.794 15.6103 171.758 10.6328 167.635 8.35342C167.574 8.31645 167.5 8.27949 167.438 8.25485C166.734 7.93451 165.624 7.86059 164.155 7.83594C161.896 7.79898 159.662 7.7497 157.416 7.72506C155.169 7.68809 152.923 7.65113 150.677 7.62649C148.418 7.58953 146.184 7.56489 143.925 7.54025C143.271 7.52793 142.63 7.52793 141.975 7.5156C140.457 7.49096 138.927 7.5156 137.396 7.41704C136.717 7.38008 136.051 7.46632 135.385 7.41704C134.558 7.35543 133.718 7.28151 132.904 7.10902C133.669 5.495 134.422 3.88099 135.187 2.26697C134.36 3.16638 133.583 4.10276 132.867 5.10074C132.521 5.58125 132.188 6.09872 131.743 6.49298C131.41 6.78868 131.065 7.1583 130.645 7.31847C130.262 7.454 129.843 7.46632 129.435 7.47864C127.745 7.50328 126.029 7.58953 124.35 7.454C121.265 7.20759 118.142 7.33079 115.044 7.31847C106.59 7.28151 98.1349 7.25687 89.6803 7.28151C87.397 7.29383 85.1383 7.29383 82.8673 7.29383C78.3253 7.30615 73.7832 7.34311 69.2289 7.36776C66.9578 7.36776 64.6745 7.3924 62.4035 7.40472C60.1201 7.42936 57.8491 7.44168 55.5657 7.46632C49.197 7.46632 42.8283 7.61417 36.4596 7.71274C33.1888 7.76202 27.3632 6.82564 24.5615 9.00641C23.0557 10.1892 22.0313 11.372 20.4514 13.1955C20.1305 13.5651 19.8096 13.9594 19.4887 14.329C19.3036 14.5384 19.0691 14.6986 18.9086 14.9327C18.6864 15.253 18.526 15.598 18.2421 15.8691C17.9706 16.1401 17.6373 16.3496 17.2794 16.4851C16.7363 16.6822 16.1439 16.7192 15.5638 16.7438C14.7739 16.7808 13.984 16.8178 13.194 16.8547C12.5646 16.8794 11.9104 16.9163 11.3674 17.212C13.0336 17.1011 14.7369 17.3599 16.292 17.9513C16.3537 17.9759 16.4154 18.0006 16.4401 18.0622C16.4648 18.1238 16.4278 18.1977 16.3907 18.2593C16.1562 18.6412 15.8847 18.9862 15.5515 19.2819C15.2429 19.5653 15.0084 20.0088 14.7615 20.3415C14.4406 20.785 14.1074 21.2409 13.7988 21.6845C13.0953 22.6948 12.4041 23.7174 11.7747 24.7646C11.5772 25.0973 11.3674 25.43 11.1452 25.7749C10.8119 26.3047 10.3429 27.044 10.0837 27.5615C10.1701 27.7586 10.2689 27.9557 10.3553 28.1282C10.5034 28.4239 10.6515 28.7196 10.7873 29.003C11.7747 31.1468 12.9472 33.2783 14.2555 35.3235C15.4404 37.1716 16.724 38.9581 18.0446 40.6584C19.39 42.371 20.834 44.0343 22.3275 45.5867L22.7718 46.0426C23.895 47.2254 24.7466 48.4082 26.4745 48.4574C36.2868 48.7285 46.1114 49.172 55.9237 49.172H56.0594C63.8475 49.3199 71.648 49.4185 79.4361 49.4801C80.2013 49.4801 80.9789 49.4308 81.7565 49.4308C82.5587 49.4308 83.361 49.4308 84.1509 49.4308C84.3484 49.4308 84.5706 49.4431 84.6816 49.6033C84.768 49.7265 84.7433 49.899 84.731 50.0468C84.4471 51.9072 84.1509 53.78 83.867 55.6404C84.6569 53.7307 85.4592 51.8333 86.2615 49.9236C86.3108 49.7881 86.3726 49.6525 86.4836 49.5663C86.6071 49.4677 86.7799 49.4431 86.9526 49.4185C87.7549 49.3445 88.5695 49.3568 89.3718 49.4554C89.7174 49.5047 90.063 49.6033 90.4085 49.5663C90.7912 49.5293 91.1861 49.5417 91.5687 49.5417C93.272 49.5417 94.9753 49.5417 96.6909 49.5417C96.7773 49.5417 96.8637 49.5417 96.9501 49.5417C101.048 49.5417 105.158 49.5047 109.255 49.4924C110.181 49.4924 111.095 49.8374 111.86 50.3548C112.785 50.9709 113.526 51.821 114.217 52.6834C113.884 51.6855 113.612 50.6752 113.403 49.6402C114.341 49.554 115.291 49.4554 116.229 49.3692C116.982 49.2952 117.71 49.4431 118.475 49.4308C120.388 49.4061 122.301 49.3692 124.227 49.3692C135.508 49.2213 146.937 48.9872 158.181 48.6792L159.057 48.6546C161.612 48.5806 165.796 49.1104 168.154 47.9646C168.512 47.7921 168.783 47.4964 169.055 47.2007C171.079 45.0076 173.066 42.716 174.93 40.375C176.078 38.9335 177.164 37.4673 178.139 36.0258C179.435 34.1284 180.558 32.1325 181.891 29.7176C182.039 29.4465 182.422 28.7689 182.631 28.2884C182.594 28.2391 182.348 27.6723 182.249 27.4629ZM174.794 33.7834C173.868 35.151 172.844 36.531 171.758 37.8986C170.092 40.0054 168.191 42.2108 166.117 44.4532C165.722 44.5641 164.895 44.6996 163.241 44.6996C162.6 44.6996 161.97 44.6873 161.365 44.6626C160.736 44.6503 160.143 44.6257 159.6 44.6257C159.378 44.6257 159.156 44.6257 158.946 44.638L158.07 44.6626C146.851 44.983 135.446 45.2048 124.178 45.3526C115.168 45.4635 106.009 45.5251 96.9501 45.5251C94.7037 45.5251 92.4574 45.5251 90.2111 45.5128C78.9424 45.4758 67.4762 45.3526 56.1582 45.1432H55.9854C48.8638 45.1432 41.6311 44.9091 34.6453 44.6873C32.041 44.601 29.4367 44.5148 26.8325 44.4409C26.6597 44.2807 26.3881 43.985 26.1907 43.7756C26.0426 43.6031 25.8821 43.4429 25.7217 43.2704L25.2773 42.8022C23.8579 41.3237 22.5126 39.7713 21.2413 38.1573C20.8587 37.6768 20.402 37.2332 20.0811 36.7281C19.6862 36.0997 19.2912 35.4714 18.8839 34.8553C18.7975 34.7075 18.6988 34.5473 18.7482 34.3748C18.8222 34.1407 19.1184 34.0791 19.3529 34.0668C22.9323 33.7957 26.5116 33.5247 30.0785 33.266C26.635 32.9333 23.1914 32.6006 19.7602 32.268C19.032 32.1941 18.2915 32.1201 17.625 31.8491C17.1436 31.6519 16.6993 31.3439 16.4031 30.925C16.2673 30.7402 16.1686 30.5431 16.0452 30.3583C15.8477 30.0995 15.7119 29.8038 15.5638 29.5081C15.3787 29.1508 15.1935 28.7935 15.0084 28.4239C14.9714 28.3623 14.6505 27.8325 14.6875 27.7709C14.885 27.4506 15.0824 27.1549 15.2552 26.8469C16.4401 24.9125 17.8472 22.9658 18.958 21.4996C20.3897 19.5899 21.9325 17.6802 23.537 15.8321C25.0058 14.1318 25.8821 13.1092 27.0793 12.1852C27.2027 12.0866 27.9927 11.5938 30.9672 11.5938C31.8929 11.5938 32.8433 11.6431 33.7689 11.68C34.6453 11.717 35.4722 11.7539 36.2374 11.7539H36.5337C38.4467 11.7293 40.3598 11.6923 42.2852 11.6677C46.6421 11.5938 51.1471 11.5198 55.5781 11.5198C57.8985 11.4952 60.1695 11.4829 62.4405 11.4582C64.7239 11.4459 66.9825 11.4213 69.2659 11.3966C73.8079 11.372 78.3376 11.335 82.8796 11.3227C85.1507 11.3104 87.4217 11.3104 89.6803 11.3104C92.0007 11.2981 94.3458 11.2981 96.6662 11.2981C109.675 11.2981 122.906 11.3597 137.125 11.4952C139.383 11.5198 141.617 11.5445 143.876 11.5814C146.122 11.6061 148.369 11.6431 150.615 11.6677C152.861 11.6923 155.108 11.7293 157.354 11.7663C159.6 11.8032 161.847 11.8402 164.093 11.8771C165.179 11.8895 165.648 11.9388 165.858 11.988C168.487 13.5158 170.869 16.9163 172.967 19.9349C173.399 20.551 173.819 21.1547 174.214 21.7214C174.609 22.2759 175.288 22.8673 175.214 23.6311C172.918 24.6907 170.375 25.2205 167.845 25.1712C170.585 25.2082 173.325 25.393 176.041 25.738C176.226 25.7626 176.423 25.7873 176.596 25.8735C177.016 26.0953 177.139 26.5881 177.386 26.9454C177.509 27.1056 177.67 27.2042 177.781 27.3643C177.843 27.4629 178.201 28.0912 178.151 28.1775C176.954 30.309 175.917 32.1201 174.794 33.7834Z" fill="url(#paint3_linear_49_898)"/>
<path d="M180.003 44.9953C179.669 45.8701 179.176 46.6956 178.571 47.4102C176.645 49.6525 174.806 52.2769 172.326 53.9771C170.993 54.8889 169.721 55.1353 168.141 55.357C164.92 55.8006 161.588 55.8622 158.391 55.9484C147.036 56.2688 135.681 56.5029 124.326 56.6507C118.796 56.7123 113.292 56.7616 107.762 56.7986C106.392 56.7986 105.034 56.8109 103.664 56.8109C99.1718 56.8232 94.6791 56.8232 90.1741 56.8109C78.7573 56.7739 67.3529 56.6507 55.9361 56.4413C53.1467 56.4413 50.345 56.4043 47.5556 56.3427C41.3473 56.2072 35.1514 55.9608 28.9555 55.8129C26.1414 55.7513 23.3396 55.8992 20.9205 54.1989C19.4888 53.2009 18.2669 51.858 17.0943 50.6136C16.9709 50.4904 16.8475 50.3548 16.7364 50.2316C15.675 49.0981 14.6382 47.94 13.6384 46.7448C12.8115 45.7592 12.0092 44.7735 11.1453 43.8125C10.7873 43.3936 10.4788 42.9254 10.1949 42.4449C9.81228 41.8042 9.36795 41.1759 9.21984 40.4366C9.19516 40.3134 9.18282 40.1656 9.26921 40.067C9.34327 39.9808 9.45435 39.9561 9.56543 39.9438C11.5896 39.5865 13.6878 39.7836 15.675 39.3894C16.0205 39.377 16.3785 39.3524 16.7364 39.3278C15.1689 39.8576 13.5521 40.2149 11.9105 40.412C11.5402 40.4489 11.1329 40.5106 10.8737 40.7693C10.3924 41.2744 10.6516 41.989 10.9354 42.4819C11.1823 42.9131 11.4415 43.332 11.7254 43.7386C12.2931 44.5641 12.9102 45.3403 13.5767 46.0672C14.6258 47.2377 15.7614 48.3219 16.8969 49.4184C17.6991 50.1823 18.5014 50.9462 19.3036 51.7101C19.8591 52.2522 20.4145 52.782 21.0686 53.2009C22.1671 53.9155 23.4631 54.2605 24.722 54.5808C25.3391 54.741 25.9686 54.8889 26.598 55.0121C26.8202 55.049 27.0424 55.1106 27.2769 55.0983C27.5114 55.086 27.7459 55.123 27.9927 55.1476C28.5358 55.2092 29.1036 55.2585 29.659 55.2708C30.7698 55.3324 31.893 55.3324 33.0161 55.2585C33.9171 55.2092 34.7811 55.1722 35.6204 54.9012C36.04 54.7657 36.472 54.8642 36.8917 54.9258C38.0272 55.0737 39.1503 55.2338 40.2858 55.3817C40.9523 55.3817 41.6065 55.6527 42.2853 55.6035C42.4828 55.5911 42.6679 55.5295 42.8654 55.5295C42.9888 55.5172 43.1246 55.5419 43.248 55.5542C44.0133 55.6651 44.7662 55.8499 45.5314 55.9608C46.5064 56.0963 47.6049 56.2318 48.58 55.9977C48.654 55.9854 48.7158 55.9484 48.8021 55.9238C49.0243 55.8499 49.2958 55.8992 49.5304 55.8992C50.9497 55.9361 52.3691 55.9608 53.8008 55.9854C56.6396 56.047 59.4907 56.1086 62.3418 56.1579C65.1929 56.2195 68.0564 56.2811 70.9075 56.3304C72.3269 56.3673 73.7463 56.4166 75.1657 56.4166C75.3631 56.4166 75.5236 56.3797 75.7087 56.3304C76.1654 56.1702 76.6961 56.1825 77.1775 56.1456C77.7452 56.1086 78.313 56.0593 78.8807 56.0347C81.1518 55.8868 83.4228 55.8129 85.6938 55.776C87.9771 55.739 90.2482 55.739 92.5315 55.7636C94.8025 55.7883 97.0735 55.8499 99.3569 55.8868C99.8629 55.8992 100.357 55.9115 100.863 55.9238C102.257 55.9608 103.627 55.9854 105.022 56.0347C105.405 56.047 105.812 56.0224 106.195 56.1209C106.565 56.2195 106.873 56.2934 107.268 56.2688C108.404 56.2318 109.552 56.1949 110.7 56.1579C112.983 56.0963 115.279 56.0347 117.562 55.9731C119.845 55.9115 122.141 55.8622 124.424 55.8252C125.054 55.8129 125.683 55.8006 126.313 55.7883C139.593 55.5542 152.479 54.9628 165.772 54.8889C167.08 54.8765 168.425 54.8642 169.623 54.3591C170.795 53.8662 171.807 52.7943 171.857 51.5499C171.881 51.8703 172.239 52.1167 172.585 52.092C172.967 52.0674 173.288 51.821 173.585 51.5869C175.695 49.9236 177.88 48.1494 178.991 45.6976C177.978 45.1555 176.917 44.7119 175.831 44.3423C177.226 44.4532 178.62 44.675 180.003 44.9953Z" fill="#FF3B3B"/>
<path d="M181.459 14.0333C181.373 14.1442 181.237 14.1935 181.101 14.2305C179.78 12.2468 178.46 10.2755 177.139 8.29186C176.473 7.29388 175.979 6.39447 174.942 5.82771C174.115 5.37184 173.387 4.79277 172.474 4.52171C172.079 4.39851 171.634 4.29994 171.387 3.96728C171.252 3.78247 171.202 3.53605 171.104 3.3266C170.635 2.34094 169.511 2.3779 168.635 2.03292C168.351 1.90972 168.129 1.86043 167.808 1.83579C166.957 1.78651 166.093 1.74955 165.241 1.70026C163.525 1.6017 161.822 1.50313 160.106 1.40456C157.107 1.23207 154.108 1.0719 151.121 0.899414C149.48 0.813169 147.813 0.714603 146.159 0.726924C144.53 0.739245 142.901 0.862452 141.272 0.800848C140.766 0.776207 140.235 0.788528 139.754 0.628358C139.272 0.468188 138.766 0.542113 138.273 0.554433C137.051 0.579075 135.829 0.616037 134.619 0.640679C131.2 0.714603 127.782 0.887094 124.363 0.887094C123.721 0.899414 123.054 0.924056 122.487 1.21975C121.894 1.52777 121.66 2.0206 121.61 2.64896C121.61 2.73521 121.61 2.84609 121.561 2.92002C121.462 3.04322 121.314 3.00626 121.178 2.94466C120.709 2.75985 120.29 2.29166 119.944 1.93436C119.685 1.67562 119.45 1.39224 119.204 1.12119C119.043 0.948697 118.981 0.813169 118.747 0.800848C118.537 0.800848 118.303 0.874773 118.105 0.899414C117.278 1.0103 116.439 1.08423 115.612 1.12119C114.785 1.14583 113.946 1.13351 113.119 1.08423C112.736 1.05958 112.329 1.05958 111.958 0.961018C111.724 0.899414 111.514 0.788528 111.267 0.763886C110.428 0.702282 109.564 0.776207 108.725 0.788528C107.873 0.800848 107.009 0.813169 106.158 0.82549C102.726 0.874773 99.2951 0.911735 95.8763 0.961018C94.3828 0.985659 92.8894 0.99798 91.4083 1.02262C90.6307 1.03494 89.8531 1.12119 89.1496 1.46617C88.1252 1.959 88.8164 3.25268 88.6559 4.10281C88.5572 3.01858 88.3227 1.74955 87.3229 1.31832C86.9527 1.15815 86.533 1.15815 86.138 1.14583C86.0887 1.14583 86.0393 1.14583 85.9899 1.14583C84.2743 1.13351 82.5711 1.10887 80.8555 1.09655C78.029 1.0719 75.2396 0.948697 72.4132 0.911735C64.5017 0.800848 56.6025 0.99798 48.691 1.05958C45.2598 1.08423 41.8162 1.12119 38.385 1.14583C37.5334 1.15815 36.6694 1.15815 35.8054 1.15815C31.5843 1.19511 27.2521 1.25672 23.3149 2.77217C22.13 3.22803 21.0932 3.88103 20.1429 4.6942C19.7109 5.05151 19.3529 5.49505 19.0814 5.97556C20.4267 6.5916 21.8585 6.98586 23.3272 7.15835C22.5867 7.40477 21.7967 7.41709 21.0192 7.42941C20.0194 7.44173 19.0197 7.46637 18.0076 7.47869C17.6497 7.47869 17.2917 7.49101 16.9338 7.57726C16.3167 7.72511 15.7983 8.11937 15.354 8.56292C15.1318 8.79701 14.885 9.04343 14.7122 9.3268C14.5887 9.52394 14.5517 9.75803 14.4406 9.95516C14.0704 10.6205 13.4779 11.2242 12.9966 11.8156C12.4782 12.4686 11.9721 13.1216 11.4661 13.7746C8.73841 17.249 5.96135 20.7974 4.3198 24.9125C3.96187 25.812 3.66565 26.7237 3.46817 27.6601C3.27069 28.5595 4.60368 28.7689 5.45531 29.1386C6.2946 29.5082 7.23263 29.7053 7.97318 30.2474C6.99812 30.0749 6.02307 29.9764 5.02332 29.9764C4.85053 29.9764 4.65305 29.9887 4.54197 30.1242C4.39386 30.2967 4.46791 30.5554 4.55431 30.7772C4.77648 31.307 4.96161 31.7875 5.25783 32.2557C5.40594 32.5021 5.45531 32.7609 5.50468 33.0319C5.62811 33.6479 5.81324 34.2517 6.07243 34.8184C6.57848 35.9766 7.34371 36.9992 8.29408 37.837C8.81246 38.2805 9.36787 38.6625 9.97266 38.9705C9.79986 38.9459 9.62707 38.9212 9.44193 38.8843C8.63967 38.6995 7.89912 38.2682 7.30668 37.6768C7.01046 37.3811 6.76361 37.0362 6.55379 36.6665C5.73919 35.1388 4.91224 33.6233 4.18404 32.0463C3.61628 30.8142 2.777 29.385 2.6906 28.0174C2.67826 27.9434 2.67826 27.8818 2.67826 27.8079C2.65357 26.8715 2.87574 25.9598 3.24601 25.085C3.83845 23.6312 4.80116 22.2513 5.56639 20.9945C6.88704 18.8384 8.35579 16.7685 9.87392 14.7479C11.4908 12.5918 13.1817 10.4973 14.959 8.45203C15.2799 8.07009 15.6008 7.71279 15.9094 7.36781C17.2053 5.88932 18.4272 4.60796 20.0811 3.30196C23.6111 0.542113 28.4493 0.566754 32.6458 0.50515C38.0394 0.418905 43.3097 0.369622 48.6293 0.308019C50.9126 0.271056 53.196 0.246415 55.4793 0.221773C57.7627 0.197132 60.0461 0.184811 62.3294 0.16017C64.6128 0.147849 66.8838 0.123207 69.1671 0.098566C71.4505 0.0862452 73.7215 0.0739245 76.0049 0.0616037C78.2882 0.049283 80.5469 0.0369622 82.8303 0.0246415C85.1136 0.0123207 87.3723 0.0123207 89.6556 0.0123207C91.939 0 94.21 0 96.481 0C98.7521 0 101.023 0 103.294 0.0123207C105.553 0.0123207 107.824 0.0246415 110.095 0.0246415C112.353 0.0369622 114.624 0.0369622 116.883 0.049283C119.154 0.0616037 121.413 0.0739245 123.671 0.0862452C125.93 0.098566 128.189 0.123207 130.46 0.147849C132.719 0.16017 134.977 0.184811 137.236 0.209453C139.495 0.234094 141.753 0.258736 144.012 0.295698C146.271 0.320339 148.517 0.357302 150.776 0.381943C153.034 0.418905 155.281 0.443547 157.539 0.480509C159.798 0.517471 162.044 0.554433 164.291 0.591396C166.438 0.628358 168.462 0.763886 170.4 1.62634C170.659 1.73722 170.918 1.87275 171.178 2.00828C173.301 3.17875 175.066 4.89134 176.67 6.69016C177.04 7.10907 177.423 7.52797 177.781 7.9592C178.423 8.68612 179.04 9.43769 179.571 10.2385C180.212 11.1996 180.817 12.1729 181.373 13.1832C181.508 13.4419 181.656 13.7992 181.459 14.0333Z" fill="#FF3B3B"/>
<path d="M56.1212 29.2001C52.5048 27.1795 46.4817 27.8079 43.6183 30.5185C41.8163 32.231 41.7175 35.4344 43.6183 37.1347C47.8024 40.8925 55.1338 39.2908 57.7874 34.6336C57.8368 34.5843 57.8862 34.5473 57.9355 34.4981C59.9597 32.6869 58.5156 29.656 56.1212 29.2001Z" fill="#EB924D"/>
<path d="M56.9852 27.4136C53.3689 25.393 47.3457 26.0214 44.4823 28.732C42.6803 30.4445 42.5815 33.6479 44.4823 35.3482C48.6664 39.106 55.9978 37.5043 58.6514 32.8471C58.7008 32.7978 58.7502 32.7608 58.7995 32.7116C60.8237 30.9004 59.3796 27.8695 56.9852 27.4136Z" fill="url(#paint4_linear_49_898)"/>
<path d="M56.1212 28.5595C52.5048 26.5389 46.4817 27.1673 43.6183 29.8778C41.8163 31.5904 41.7175 34.7938 43.6183 36.4941C47.8024 40.2519 55.1338 38.6502 57.7874 33.993C57.8368 33.9437 57.8862 33.9067 57.9355 33.8574C59.9597 32.0463 58.5156 29.0154 56.1212 28.5595Z" fill="url(#paint5_linear_49_898)"/>
<path d="M149.048 17.5571C146.789 16.3004 143.037 16.6823 141.247 18.3826C140.124 19.4545 140.062 21.4504 141.247 22.51C143.852 24.851 148.431 23.853 150.084 20.9576C150.121 20.933 150.146 20.896 150.183 20.8714C151.442 19.7255 150.541 17.8404 149.048 17.5571Z" fill="#EB924D"/>
<path d="M149.578 16.4482C147.32 15.1915 143.568 15.5734 141.778 17.2737C140.655 18.3456 140.593 20.3415 141.778 21.4011C144.382 23.7421 148.961 22.7441 150.615 19.8487C150.652 19.8241 150.677 19.7871 150.714 19.7625C151.973 18.6166 151.072 16.7316 149.578 16.4482Z" fill="url(#paint6_linear_49_898)"/>
<path d="M149.048 17.1628C146.789 15.9061 143.037 16.288 141.247 17.9883C140.124 19.0602 140.062 21.0561 141.247 22.1157C143.852 24.4567 148.431 23.4587 150.084 20.5633C150.121 20.5387 150.146 20.5017 150.183 20.4771C151.442 19.3312 150.541 17.4462 149.048 17.1628Z" fill="url(#paint7_linear_49_898)"/>
<path d="M179.336 29.0524C177.756 32.0093 176.078 34.8308 174.276 37.4921C172.313 40.4121 170.203 43.1473 167.932 45.6361C167.475 46.1289 166.833 46.4246 166.154 46.4369C120.611 47.7676 74.4128 47.6444 27.5978 46.1412C26.9437 46.1166 26.3142 45.8332 25.8699 45.365C20.686 39.8823 16.1934 34.301 13.367 28.4486C12.9967 27.6847 13.0707 26.7853 13.5274 26.0707C13.9964 25.3438 14.4778 24.6292 14.9715 23.9269C18.3163 19.1588 22.2782 14.7356 26.7462 10.5589C27.2029 10.1523 27.7953 9.90591 28.4001 9.89359C74.5116 8.98186 120.302 9.09274 165.796 10.2016C166.5 10.2263 167.166 10.5343 167.623 11.0764C172.4 16.633 176.571 21.9556 179.311 26.6744C179.731 27.4014 179.743 28.3008 179.336 29.0524Z" fill="url(#paint8_linear_49_898)"/>
<path d="M179.336 29.0524C179.089 29.5205 178.83 29.9764 178.583 30.4446C178.41 30.7649 178.127 31.0237 177.978 31.3563C177.053 33.3153 175.387 34.6706 173.683 35.9273C171.869 37.2703 169.943 38.6749 169.005 40.7324C169.203 40.3751 169.4 40.0301 169.598 39.6728C171.684 35.915 173.757 32.1695 175.67 28.3254C175.387 27.8326 175.078 27.3398 174.769 26.8593C173.535 24.9249 172.103 23.1138 170.511 21.4505C169.783 20.6989 168.956 20.0212 168.277 19.2204C167.808 18.6906 167.166 18.5674 166.5 18.3703C163.735 17.5571 160.859 17.323 157.996 17.1135C121.956 14.3907 85.7308 13.4789 49.6538 15.5981C39.0393 16.2141 28.795 19.5654 19.0938 23.9146C18.5384 24.161 18.0941 24.6169 17.588 24.9742C17.0943 25.3315 16.4525 25.6025 15.8601 25.3931C15.28 25.1836 14.9838 24.5553 14.9714 23.9269C18.3162 19.1588 22.2782 14.7356 26.7462 10.5589C27.2028 10.1523 27.7953 9.90591 28.4 9.89359C74.5115 8.98186 120.302 9.09274 165.796 10.2016C166.5 10.2263 167.166 10.5343 167.623 11.0764C172.4 16.633 176.571 21.9556 179.311 26.6744C179.731 27.4014 179.743 28.3008 179.336 29.0524Z" fill="#FF3B3B"/>
<path d="M177.176 27.9065C173.72 34.3256 170.104 39.5989 166.105 43.9728C152.886 44.367 139.47 44.6258 125.992 44.7613C118.191 44.8599 110.379 44.8968 102.566 44.8968C101.69 44.8968 100.826 44.8968 99.9493 44.8845C76.2394 44.8722 51.9371 44.4533 27.6841 43.6771C21.8091 37.4797 17.9706 32.305 15.5885 27.389C18.958 22.239 23.2779 17.1751 28.437 12.3701C28.6839 12.3701 28.9184 12.3577 29.1652 12.3577C49.5303 11.9512 70.1052 11.7417 90.3592 11.7417C96.9501 11.7417 103.553 11.7663 110.181 11.8156C120.413 11.8772 130.67 11.9881 140.889 12.1606C142.889 12.1852 144.888 12.2222 146.875 12.2592C146.9 12.2715 146.925 12.2715 146.949 12.2592C147.752 12.2838 148.566 12.2961 149.369 12.3085C154.799 12.407 160.218 12.5302 165.624 12.6658H165.735C165.821 12.7643 165.907 12.8629 165.994 12.9615C167.895 15.1915 169.573 17.2121 171.042 19.0972C173.696 22.4731 175.683 25.3438 177.176 27.9065Z" fill="url(#paint9_linear_49_898)"/>
<path d="M170.77 30.1119C147.678 30.9867 124.548 31.4426 101.43 31.5288H100.492C74.5979 31.6027 48.7034 31.1469 22.8336 30.1612C21.4019 30.0996 19.1802 30.0503 18.2916 28.695C17.7732 27.8819 18.0817 26.9209 18.4767 26.1323C19.7603 23.471 21.3895 21.0069 23.1668 18.6413C24.0185 17.5078 24.9071 16.3989 25.8081 15.2901C26.0179 15.0437 26.1784 14.8096 26.3389 14.5262C26.8202 13.713 27.8693 13.1955 28.6469 12.6781C28.8197 12.5672 28.9925 12.4563 29.1653 12.3577C49.5304 11.9512 70.1053 11.7417 90.3592 11.7417C115.39 11.7417 140.717 12.0497 165.624 12.6658C165.747 12.752 165.87 12.8629 165.994 12.9615L166.031 12.9984C167.944 14.674 169.586 16.6454 170.894 18.8384C170.943 18.9247 170.993 19.0109 171.042 19.0972C172.066 20.8344 172.869 22.7072 173.436 24.6415C173.72 25.6025 173.868 26.6005 174.251 27.5369C175.066 29.5205 172.289 30.0503 170.77 30.1119Z" fill="url(#paint10_linear_49_898)"/>
<path d="M151.134 12.0989C150.541 12.1236 149.949 12.1975 149.369 12.3084C146.024 12.9367 142.951 14.8711 140.519 17.2983C137.668 20.1567 135.57 23.6558 133.509 27.1179C131.312 30.8265 129.102 34.535 126.893 38.2435C126.041 39.6728 125.165 41.2005 125.251 42.8515C125.288 43.5291 125.56 44.2191 125.992 44.7612C118.192 44.8598 110.379 44.8967 102.566 44.8967C101.69 44.8967 100.826 44.8967 99.9493 44.8844C102.689 44.5271 105.38 43.714 107.861 42.5188C108.638 42.1492 109.404 41.718 110.058 41.1512C110.7 40.5968 111.058 39.9315 111.551 39.2662C112.168 38.4037 112.847 37.6152 113.464 36.7281C116.254 32.6253 118.846 28.387 121.203 24.0254C122.178 22.2266 123.153 20.2676 122.931 18.2223C122.659 15.598 120.413 13.5158 117.92 12.6287C115.427 11.7416 112.711 11.8156 110.07 11.9018C110.107 11.8772 110.144 11.8402 110.181 11.8156C120.413 11.8772 130.67 11.988 140.889 12.1605C142.876 12.2591 144.876 12.2961 146.875 12.2591C146.9 12.2714 146.925 12.2714 146.949 12.2591C148.344 12.2468 149.739 12.1975 151.134 12.0989Z" fill="url(#paint11_linear_49_898)"/>
</g>
<defs>
<linearGradient id="paint0_linear_49_898" x1="108.02" y1="-49.8269" x2="102.266" y2="-14.4191" gradientUnits="userSpaceOnUse">
<stop stop-color="#CF2B2B"/>
<stop offset="1"/>
</linearGradient>
<linearGradient id="paint1_linear_49_898" x1="104.105" y1="-42.6027" x2="78.6247" y2="189.598" gradientUnits="userSpaceOnUse">
<stop stop-color="#CF5C2B"/>
<stop offset="1" stop-color="#59173E"/>
</linearGradient>
<linearGradient id="paint2_linear_49_898" x1="97.7857" y1="-4.42462" x2="89.772" y2="175.276" gradientUnits="userSpaceOnUse">
<stop stop-color="#CF5C2B"/>
<stop offset="1" stop-color="#59173E"/>
</linearGradient>
<linearGradient id="paint3_linear_49_898" x1="96.3618" y1="85.941" x2="96.3618" y2="40.9058" gradientUnits="userSpaceOnUse">
<stop stop-color="#CF5C2B"/>
<stop offset="1" stop-color="#59173E"/>
</linearGradient>
<linearGradient id="paint4_linear_49_898" x1="57.7787" y1="14.2197" x2="48.6893" y2="38.5611" gradientUnits="userSpaceOnUse">
<stop stop-color="#CF5C2B"/>
<stop offset="1" stop-color="#59173E"/>
</linearGradient>
<linearGradient id="paint5_linear_49_898" x1="88.36" y1="-55.2473" x2="9.91519" y2="127.099" gradientUnits="userSpaceOnUse">
<stop stop-color="#CF5C2B"/>
<stop offset="1" stop-color="#59173E"/>
</linearGradient>
<linearGradient id="paint6_linear_49_898" x1="150.079" y1="8.21916" x2="144.411" y2="23.3967" gradientUnits="userSpaceOnUse">
<stop stop-color="#CF5C2B"/>
<stop offset="1" stop-color="#59173E"/>
</linearGradient>
<linearGradient id="paint7_linear_49_898" x1="169.147" y1="-35.0964" x2="120.234" y2="78.6032" gradientUnits="userSpaceOnUse">
<stop stop-color="#CF5C2B"/>
<stop offset="1" stop-color="#59173E"/>
</linearGradient>
<linearGradient id="paint8_linear_49_898" x1="96.379" y1="7.40542" x2="96.379" y2="28.4872" gradientUnits="userSpaceOnUse">
<stop stop-color="#BE2926"/>
<stop offset="0.9944" stop-color="#93211E"/>
</linearGradient>
<linearGradient id="paint9_linear_49_898" x1="96.3789" y1="63.2404" x2="96.3789" y2="26.1196" gradientUnits="userSpaceOnUse">
<stop offset="0.00558659" stop-color="#D32E27"/>
<stop offset="1" stop-color="#A92223"/>
</linearGradient>
<linearGradient id="paint10_linear_49_898" x1="96.2044" y1="50.9721" x2="96.2044" y2="17.6037" gradientUnits="userSpaceOnUse">
<stop stop-color="#EF4623"/>
<stop offset="0.9944" stop-color="#A92223"/>
</linearGradient>
<linearGradient id="paint11_linear_49_898" x1="139.789" y1="-8.40082" x2="112.453" y2="52.505" gradientUnits="userSpaceOnUse">
<stop stop-color="#FF6364"/>
<stop offset="1" stop-color="#EC0002" stop-opacity="0"/>
</linearGradient>
<clipPath id="clip0_49_898">
<rect width="190" height="61" fill="white"/>
</clipPath>
</defs>
</svg>
