<svg width="40" height="56" viewBox="0 0 40 56" fill="none" xmlns="http://www.w3.org/2000/svg">
<path d="M34.4982 0.747276H5.50191C4.1814 0.747276 3.04429 1.22425 2.09059 2.1782C1.13689 3.13215 0.660034 4.26955 0.660034 5.5904V50.9397C0.660034 52.2606 1.13689 53.398 2.09059 54.3519C3.04429 55.3059 4.1814 55.7828 5.50191 55.7828H34.4982C35.8187 55.7828 36.9558 55.3059 37.9095 54.3519C38.8632 53.398 39.34 52.2606 39.34 50.9397V5.5904C39.34 4.26955 38.8632 3.13215 37.9095 2.1782C36.9558 1.22425 35.8187 0.747276 34.4982 0.747276ZM36.1488 50.9397C36.1488 51.38 35.9837 51.7561 35.6536 52.0679C35.3235 52.3798 34.9383 52.5357 34.4982 52.5357H5.50191C5.06174 52.5357 4.68576 52.3798 4.37397 52.0679C4.06219 51.7561 3.90629 51.38 3.90629 50.9397V46.0966H36.1488V50.9397ZM36.1488 42.9045H3.90629V10.4335H36.1488V42.9045ZM36.1488 7.18644H3.90629V5.5904C3.90629 5.15012 4.06219 4.77404 4.37397 4.46218C4.68576 4.15031 5.06174 3.99437 5.50191 3.99437H34.4982C34.9383 3.99437 35.3235 4.15031 35.6536 4.46218C35.9837 4.77404 36.1488 5.15012 36.1488 5.5904V7.18644ZM10.3438 23.532C9.68353 23.532 9.0783 23.7063 8.52809 24.0548C7.97787 24.4034 7.57438 24.8804 7.31762 25.4858C7.06085 26.0912 6.98749 26.7241 7.09753 27.3845C7.20757 28.0449 7.50102 28.6044 7.97787 29.0631C8.45472 29.5217 9.01411 29.8152 9.65602 29.9436C10.2979 30.0721 10.9215 30.017 11.5267 29.7785C12.132 29.54 12.618 29.1456 12.9848 28.5953C13.3516 28.0449 13.535 27.4395 13.535 26.7791C13.535 25.8985 13.2232 25.1372 12.5997 24.4951C11.9761 23.853 11.2241 23.532 10.3438 23.532ZM20.0275 23.532C19.3673 23.532 18.7621 23.7063 18.2118 24.0548C17.6616 24.4034 17.2581 24.8804 17.0014 25.4858C16.7446 26.0912 16.6712 26.7241 16.7813 27.3845C16.8913 28.0449 17.1848 28.6044 17.6616 29.0631C18.1385 29.5217 18.6979 29.8152 19.3398 29.9436C19.9817 30.0721 20.6053 30.017 21.2105 29.7785C21.8157 29.54 22.3018 29.1456 22.6686 28.5953C23.0354 28.0449 23.2188 27.4395 23.2188 26.7791C23.2188 25.8985 22.907 25.1372 22.2834 24.4951C21.6598 23.853 20.9079 23.532 20.0275 23.532ZM29.6563 23.532C28.7759 23.532 28.0148 23.853 27.3729 24.4951C26.731 25.1372 26.41 25.8985 26.41 26.7791C26.41 27.6597 26.731 28.421 27.3729 29.0631C28.0148 29.7052 28.7759 30.0262 29.6563 30.0262C30.5366 30.0262 31.2977 29.7052 31.9397 29.0631C32.5816 28.421 32.9025 27.6597 32.9025 26.7791C32.9025 25.8985 32.5816 25.1372 31.9397 24.4951C31.2977 23.853 30.5366 23.532 29.6563 23.532Z" fill="white"/>
</svg>
