<svg width="56" height="56" viewBox="0 0 56 56" fill="none" xmlns="http://www.w3.org/2000/svg">
<path d="M53.5389 0.79509H53.4839L3.3333 14.5025C3.0397 14.5759 2.7828 14.7227 2.5626 14.9429C2.3424 15.1631 2.20478 15.42 2.14973 15.7136C2.09468 16.0072 2.11303 16.3008 2.20478 16.5944C2.29653 16.888 2.47085 17.1266 2.72775 17.3101L18.3069 30.1367L15.4443 38.7796C15.3342 39.0732 15.3159 39.3668 15.3893 39.6604C15.4627 39.954 15.6095 40.2109 15.8297 40.4311C16.0499 40.6513 16.3068 40.7981 16.6004 40.8715C16.894 40.9449 17.1876 40.9265 17.4812 40.8164L26.124 37.9538L39.0057 53.588C39.1892 53.8449 39.4278 54.0193 39.7214 54.111C40.015 54.2028 40.3086 54.2211 40.6022 54.1661C40.8958 54.111 41.1527 53.9734 41.3729 53.7532C41.5931 53.533 41.7399 53.2761 41.8133 52.9825L55.4657 2.72184C55.6125 2.13464 55.4748 1.63001 55.0528 1.20796C54.6307 0.785915 54.1261 0.648289 53.5389 0.79509ZM7.1868 16.7596L46.9329 5.91474L20.2337 27.5494L7.1868 16.7596ZM25.6836 34.7059L19.518 36.7427L21.6099 30.5771L43.0794 13.1813L25.6836 34.7059ZM39.5012 49.129L28.7664 36.0271L50.346 9.32784L39.5012 49.129ZM5.48025 50.7805C5.18665 50.4869 4.81048 50.3401 4.35173 50.3401C3.89298 50.3401 3.5168 50.4869 3.2232 50.7805L0.966153 53.0375C0.635853 53.3678 0.470703 53.7532 0.470703 54.1936C0.470703 54.634 0.635853 55.0102 0.966153 55.3221C1.29645 55.6341 1.67263 55.79 2.09468 55.79C2.51673 55.79 2.8929 55.6432 3.2232 55.3496L5.48025 53.0375C5.77385 52.7439 5.92065 52.3678 5.92065 51.909C5.92065 51.4503 5.77385 51.0741 5.48025 50.7805ZM12.3615 43.8992C12.0312 43.5689 11.6459 43.4038 11.2055 43.4038C10.7651 43.4038 10.3797 43.5689 10.0494 43.8992L7.79235 46.2113C7.49875 46.5416 7.35195 46.9178 7.35195 47.3399C7.35195 47.7619 7.50793 48.1197 7.81988 48.4133C8.13183 48.7069 8.49883 48.8537 8.92088 48.8537C9.34293 48.8537 9.7191 48.7253 10.0494 48.4684L12.3615 46.2113C12.6918 45.881 12.857 45.4957 12.857 45.0553C12.857 44.6149 12.6918 44.2295 12.3615 43.8992Z" fill="white"/>
</svg>
