<svg width="56" height="56" viewBox="0 0 56 56" fill="none" xmlns="http://www.w3.org/2000/svg">
<path d="M27.8863 0.739994C24.1429 0.739994 20.5647 1.45564 17.1516 2.88694C13.8853 4.28154 10.9768 6.25417 8.42615 8.80482C5.8755 11.3555 3.90288 14.2639 2.50828 17.5302C1.07698 20.9433 0.361328 24.5216 0.361328 28.265C0.361328 32.0084 1.07698 35.5866 2.50828 38.9997C3.90288 42.266 5.8755 45.1745 8.42615 47.7252C10.9768 50.2758 13.8853 52.2484 17.1516 53.643C20.5647 55.0743 24.1429 55.7808 27.8863 55.7625C31.6297 55.7441 35.208 55.0193 38.6211 53.588C41.9241 52.1567 44.8417 50.1749 47.374 47.6426C49.9063 45.1103 51.8881 42.1926 53.3194 38.8896C54.7507 35.4765 55.4664 31.8983 55.4664 28.1549C55.4664 24.4115 54.7507 20.8516 53.3194 17.4752C51.8881 14.1722 49.8972 11.2545 47.3465 8.72224C44.7959 6.18994 41.8874 4.24484 38.6211 2.88694C35.208 1.45564 31.6297 0.739994 27.8863 0.739994ZM27.8863 52.5971C23.4823 52.5604 19.4086 51.441 15.6652 49.239C11.9952 47.0737 9.09593 44.1561 6.96733 40.4861C4.76533 36.706 3.66433 32.6231 3.66433 28.2375C3.66433 23.8518 4.76533 19.7689 6.96733 15.9888C9.13263 12.3188 12.0503 9.40119 15.7203 7.23589C19.5004 5.03389 23.5833 3.93289 27.9689 3.93289C32.3546 3.93289 36.4374 5.03389 40.2175 7.23589C43.8875 9.36449 46.8052 12.2638 48.9705 15.9338C51.1725 19.6772 52.2918 23.7509 52.3285 28.1549C52.3285 31.3845 51.7138 34.504 50.4844 37.5134C49.2549 40.5228 47.4933 43.1744 45.1996 45.4681C42.9058 47.7619 40.2542 49.5235 37.2448 50.7529C34.2354 51.9824 31.1159 52.5971 27.8863 52.5971ZM30.3636 28.1549L35.7034 22.8701C36.0337 22.5398 36.1989 22.1544 36.1989 21.714C36.1989 21.2736 36.0337 20.8883 35.7034 20.558C35.3731 20.2277 34.9878 20.0625 34.5474 20.0625C34.107 20.0625 33.7216 20.2277 33.3913 20.558L26.9505 26.9988C26.6202 27.3291 26.455 27.7145 26.455 28.1549C26.455 28.5953 26.6202 28.9806 26.9505 29.3109L33.3913 35.7518C33.7216 36.0821 34.107 36.2472 34.5474 36.2472C34.9878 36.2472 35.3731 36.0821 35.7034 35.7518C36.0337 35.4215 36.1989 35.0361 36.1989 34.5957C36.1989 34.1553 36.0337 33.77 35.7034 33.4397L30.3636 28.1549ZM27.8863 7.18084C24.0695 7.18084 20.528 8.13504 17.2617 10.0434C14.0688 11.9151 11.5365 14.4474 9.66478 17.6403C7.75638 20.9066 6.80218 24.4482 6.80218 28.265C6.80218 32.0818 7.75638 35.6233 9.66478 38.8896C11.5365 42.0825 14.0688 44.6148 17.2617 46.4865C20.528 48.3949 24.0695 49.3491 27.8863 49.3491C31.7031 49.3491 35.2447 48.3949 38.511 46.4865C41.7039 44.6148 44.2362 42.0825 46.1079 38.8896C48.0163 35.6233 48.9705 32.0818 48.9705 28.265C48.9705 24.4482 48.0163 20.9066 46.1079 17.6403C44.2362 14.4474 41.7039 11.9151 38.511 10.0434C35.2447 8.13504 31.7031 7.18084 27.8863 7.18084ZM41.5938 39.6053L40.6579 38.6144C40.3276 38.2841 39.9423 38.1189 39.5019 38.1189C39.0615 38.1189 38.6761 38.2841 38.3458 38.6144C38.0155 38.9447 37.8504 39.33 37.8504 39.7704C37.8504 40.2108 38.0155 40.5962 38.3458 40.9265L39.3367 41.8623C37.9421 43.0367 36.4099 43.9818 34.7401 44.6974C33.0702 45.4131 31.3178 45.8626 29.4828 46.0461V44.5047C29.4828 44.0643 29.3268 43.6882 29.0149 43.3762C28.7029 43.0643 28.3267 42.9083 27.8863 42.9083C27.4459 42.9083 27.0698 43.0643 26.7578 43.3762C26.4459 43.6882 26.2899 44.0643 26.2899 44.5047V46.0461C24.4916 45.8626 22.7667 45.4314 21.1152 44.7525C19.4637 44.0735 17.959 43.1468 16.6011 41.9724L17.647 40.9265C17.9773 40.5962 18.1425 40.2108 18.1425 39.7704C18.1425 39.33 17.9773 38.9447 17.647 38.6144C17.3167 38.2841 16.9314 38.1189 16.491 38.1189C16.0506 38.1189 15.6652 38.2841 15.3349 38.6144L14.289 39.6603C13.1146 38.2657 12.1787 36.7243 11.4814 35.0361C10.7841 33.3479 10.3621 31.5863 10.2153 29.7513H11.7567C12.1971 29.7513 12.5733 29.5954 12.8852 29.2834C13.1972 28.9715 13.3531 28.5953 13.3531 28.1549C13.3531 27.7145 13.1972 27.3383 12.8852 27.0264C12.5733 26.7144 12.1971 26.5584 11.7567 26.5584H10.2153C10.3988 24.7601 10.83 23.0352 11.509 21.3837C12.1879 19.7322 13.1146 18.2092 14.289 16.8146L15.3349 17.9156C15.5551 18.1358 15.8029 18.2826 16.0781 18.356C16.3534 18.4294 16.6286 18.4294 16.9039 18.356C17.1791 18.2826 17.4268 18.1358 17.647 17.9156C17.8672 17.6954 18.014 17.4477 18.0874 17.1724C18.1608 16.8972 18.1608 16.6219 18.0874 16.3467C18.014 16.0714 17.8672 15.8237 17.647 15.6035L16.546 14.5575C17.9406 13.3831 19.4637 12.4565 21.1152 11.7775C22.7667 11.0986 24.4916 10.6673 26.2899 10.4838V12.0252C26.2899 12.4656 26.4459 12.8418 26.7578 13.1538C27.0698 13.4657 27.4459 13.6217 27.8863 13.6217C28.3267 13.6217 28.7029 13.4657 29.0149 13.1538C29.3268 12.8418 29.4828 12.4656 29.4828 12.0252V10.4838C31.3178 10.6306 33.0794 11.0527 34.7676 11.75C36.4558 12.4473 37.9972 13.3831 39.3918 14.5575L38.3458 15.6035C38.1256 15.8237 37.9788 16.0714 37.9054 16.3467C37.832 16.6219 37.832 16.8972 37.9054 17.1724C37.9788 17.4477 38.1256 17.6954 38.3458 17.9156C38.566 18.1358 38.8138 18.2826 39.089 18.356C39.3643 18.4294 39.6395 18.4294 39.9148 18.356C40.19 18.2826 40.4377 18.1358 40.6579 17.9156L41.7039 16.8146C42.8783 18.2092 43.8141 19.7322 44.5114 21.3837C45.2087 23.0352 45.6308 24.7601 45.7776 26.5584H44.2362C43.7958 26.5584 43.4196 26.7144 43.1077 27.0264C42.7957 27.3383 42.6397 27.7145 42.6397 28.1549C42.6397 28.5953 42.7957 28.9715 43.1077 29.2834C43.4196 29.5954 43.7958 29.7513 44.2362 29.7513H45.7776C45.5941 31.5863 45.1445 33.3388 44.4289 35.0086C43.7132 36.6785 42.7682 38.2107 41.5938 39.6053Z" fill="white"/>
</svg>
