<svg width="40" height="56" viewBox="0 0 40 56" fill="none" xmlns="http://www.w3.org/2000/svg">
<path d="M19.9948 0.74004C16.5083 0.74004 13.2603 1.62084 10.2509 3.38244C7.31494 5.10734 4.98449 7.43779 3.25959 10.3738C1.49799 13.3832 0.617188 16.6311 0.617188 20.1176C0.617188 21.8792 0.864913 23.6225 1.36036 25.3474C1.85581 27.0723 2.58064 28.7054 3.53484 30.2468L18.8938 55.0193C19.0406 55.2762 19.2333 55.4689 19.4718 55.5974C19.7104 55.7258 19.9764 55.79 20.27 55.79C20.5636 55.79 20.8297 55.7258 21.0683 55.5974C21.3068 55.4689 21.4995 55.2762 21.6463 55.0193L36.6199 30.0266C38.4549 26.8704 39.3724 23.5583 39.3724 20.0901C39.3724 16.622 38.4916 13.3832 36.73 10.3738C35.0051 7.43779 32.6746 5.10734 29.7386 3.38244C26.7292 1.62084 23.4813 0.74004 19.9948 0.74004ZM33.8674 28.3751L20.215 51.0557L6.28734 28.5953C4.67254 25.9896 3.86514 23.1637 3.86514 20.1176C3.86514 17.1816 4.59914 14.4658 6.06714 11.9702C7.49844 9.51134 9.42519 7.56624 11.8474 6.13494C14.3797 4.66694 17.0955 3.93294 19.9948 3.93294C22.8941 3.93294 25.6099 4.66694 28.1422 6.13494C30.5644 7.56624 32.4911 9.51134 33.9224 11.9702C35.3904 14.4658 36.1244 17.1816 36.1244 20.1176C36.1244 23.0536 35.3721 25.8061 33.8674 28.3751ZM19.9948 10.4288C18.2332 10.4288 16.6092 10.8601 15.1229 11.7225C13.6365 12.585 12.4621 13.7594 11.5997 15.2457C10.7372 16.7321 10.306 18.3469 10.306 20.0901C10.306 21.8334 10.7372 23.4482 11.5997 24.9345C12.4621 26.4209 13.6365 27.5953 15.1229 28.4577C16.6092 29.3202 18.2332 29.7514 19.9948 29.7514C21.7564 29.7514 23.3804 29.311 24.8667 28.4302C26.3531 27.5494 27.5275 26.375 28.3899 24.907C29.2524 23.439 29.6836 21.8334 29.6836 20.0901C29.6836 18.3469 29.2524 16.7321 28.3899 15.2457C27.5275 13.7594 26.3531 12.585 24.8667 11.7225C23.3804 10.8601 21.7564 10.4288 19.9948 10.4288ZM19.9948 26.5585C18.8204 26.5585 17.7377 26.2649 16.7468 25.6777C15.7559 25.0905 14.9669 24.3014 14.3797 23.3105C13.7925 22.3196 13.4989 21.2462 13.4989 20.0901C13.4989 18.9341 13.7925 17.8606 14.3797 16.8697C14.9669 15.8788 15.7559 15.0897 16.7468 14.5025C17.7377 13.9153 18.8204 13.6217 19.9948 13.6217C21.1692 13.6217 22.2518 13.9153 23.2427 14.5025C24.2336 15.0897 25.0135 15.8788 25.5824 16.8697C26.1512 17.8606 26.4356 18.9341 26.4356 20.0901C26.4356 21.2462 26.1512 22.3196 25.5824 23.3105C25.0135 24.3014 24.2336 25.0905 23.2427 25.6777C22.2518 26.2649 21.1692 26.5585 19.9948 26.5585Z" fill="white"/>
</svg>
