<svg width="238" height="70" viewBox="0 0 238 70" fill="none" xmlns="http://www.w3.org/2000/svg">
<g style="mix-blend-mode:multiply" clip-path="url(#clip0_49_1319)">
<path opacity="0.17" d="M235.795 6.99635C235.533 5.18044 233.944 3.78987 232.044 3.69171C162.795 -0.0219196 88.8933 -0.0709985 10.3721 2.12119C9.07784 2.15391 7.75086 2.89009 6.89897 3.83895C5.78496 5.115 5.12966 6.80004 4.26139 8.25604C3.29482 9.87564 1.70572 11.8061 1.5419 13.7202C1.34531 15.896 1.21425 18.1045 1.14872 20.3294C0.558947 34.2515 1.78763 48.9587 2.96717 62.7826C3.131 64.6803 4.7201 66.2018 6.70238 66.3326C80.2598 71.0606 154.128 70.3408 227.686 65.6455C231.388 65.4002 233.076 59.887 234.763 57.2367C235.386 56.2551 236.254 55.3063 236.385 54.112C237.155 47.0774 237.548 40.0264 237.564 33.0899C237.581 24.1249 237.007 15.3561 235.795 6.99635Z" fill="black"/>
<path d="M237.565 33.09C237.548 40.0265 237.139 47.0775 236.385 54.1121C236.188 55.9935 234.583 57.4495 232.633 57.564C159.076 62.2592 85.2074 62.979 11.65 58.2511C9.66775 58.1202 8.07865 56.5988 7.91482 54.701C6.7189 40.8608 5.50659 26.1699 6.07998 12.2479C6.16189 10.0229 6.27657 7.8144 6.48954 5.63857C6.65337 3.69178 8.35715 2.17034 10.3722 2.12126C88.8935 -0.0709305 162.795 -0.00549203 232.044 3.70814C233.944 3.8063 235.533 5.1805 235.795 7.01278C237.008 15.3562 237.581 24.1249 237.565 33.09Z" fill="url(#paint0_linear_49_1319)"/>
<path d="M236.205 32.6319C235.926 33.4172 235.664 34.2188 235.418 35.0368C234.665 37.5398 234.108 40.1083 233.731 42.6931C233.551 43.9691 233.354 45.2779 233.338 46.5703C233.338 46.9793 233.436 47.3556 233.469 47.7482C233.485 47.9609 233.452 48.1736 233.403 48.3862C233.354 48.6153 233.272 48.8279 233.19 49.057C233.108 49.3187 232.469 50.5948 232.601 50.8074C230.209 46.6357 230.471 41.5806 230.258 36.8036C230.045 32.0103 228.931 26.7425 224.884 23.9613C222.181 22.1127 218.708 21.8019 215.415 21.5565C149.214 16.5341 82.3567 14.2928 15.9585 14.7345C15.4998 15.9615 15.0738 17.2048 14.6806 18.4481C14.0745 20.3459 13.5339 22.2436 13.0752 24.174C12.8458 25.1392 12.6328 26.1044 12.4199 27.0697C12.2397 27.9531 11.9284 28.9183 11.9611 29.8181C11.9775 30.0962 12.0267 30.3579 11.9939 30.6361C11.9448 31.0941 11.7809 31.5522 11.6663 31.9939C11.4369 32.9591 11.2403 33.9407 11.0929 34.9223C10.9454 35.9038 10.8471 36.8854 10.7816 37.8834C10.7325 38.8322 10.6342 39.8465 10.7325 40.7954C10.5686 39.2739 10.4048 37.7525 10.241 36.2474C9.79866 32.1411 9.35633 28.0349 8.91401 23.945C8.70103 21.9 8.47168 19.8387 8.25871 17.7938C8.19318 17.0412 8.22594 16.1414 7.81638 15.438C7.68532 15.2089 7.52149 15.0126 7.37405 14.7836C6.83343 13.9983 6.47301 13.0986 6.07983 12.2479C6.16175 10.0229 6.27642 7.8144 6.4894 5.63857C6.65322 3.69178 8.357 2.17034 10.372 2.12126C88.8933 -0.0709305 162.795 -0.00549203 232.044 3.70814C233.944 3.8063 235.533 5.1805 235.795 7.01278C236.303 10.5628 236.696 14.1292 236.975 17.712C237.073 19.0534 237.171 20.3949 237.253 21.7364C237.319 22.9634 237.483 24.2558 237.368 25.4828C237.27 26.5298 237.597 27.5277 237.433 28.5911C237.253 29.8017 236.794 30.9796 236.385 32.1248C236.336 32.3047 236.27 32.4683 236.205 32.6319Z" fill="#FF3B3B"/>
<path d="M232.388 53.7031C210.796 55.0773 189.367 56.0916 168.283 56.7296C153.129 57.1877 138.156 57.4658 123.428 57.5476C123.051 57.564 122.658 57.564 122.281 57.5476C119.512 57.5803 116.776 57.5803 114.024 57.5803C79.3261 57.5803 44.972 56.5006 11.9285 54.3575C10.6835 39.8956 9.30733 23.6505 10.2739 8.8287C10.323 7.86348 10.405 6.91463 10.4869 5.94941C45.8731 5.00055 78.1466 4.52612 109.109 4.52612C123.936 4.52612 138.303 4.64064 152.277 4.85332C152.49 4.86967 152.72 4.86967 152.933 4.86967C154.194 4.88603 155.456 4.90239 156.701 4.93511C169.643 5.16415 182.241 5.49134 194.561 5.94941C207.241 6.37476 219.626 6.91463 231.831 7.58537C232.47 11.9697 232.912 16.485 233.19 21.0984C233.862 31.6504 233.567 42.7258 232.388 53.7031Z" fill="url(#paint1_linear_49_1319)"/>
<path d="M233.191 21.082C233.305 22.8652 232.961 24.7793 232.814 26.5462C232.044 35.6094 210.91 34.4969 204.849 34.8568C150.426 38.1942 95.0861 35.6257 40.6471 33.1554C32.7179 32.7955 24.8052 32.3211 16.8761 31.9285C11.0275 31.634 11.4862 26.7752 11.1422 22.3581C10.7982 17.8592 10.4869 13.344 10.2739 8.8287C10.3231 7.86348 10.405 6.91463 10.4869 5.94941C45.8731 5.00055 78.1466 4.52612 109.109 4.52612C153.555 4.52612 193.692 5.54042 231.831 7.56901C232.47 11.9534 232.912 16.4686 233.191 21.082Z" fill="url(#paint2_linear_49_1319)"/>
<path d="M194.561 5.93299C190.694 6.7019 187.319 7.63439 184.977 10.9227C178.194 20.3295 172.28 30.3415 167.3 40.7462C165.989 43.4783 164.744 46.3085 164.712 49.3187C164.695 51.9689 165.973 55.2409 168.283 56.7296C153.129 57.1876 138.156 57.4658 123.428 57.5476C128.08 57.5476 132.602 55.3717 136.108 52.3616C140.04 48.9915 142.907 44.6071 145.692 40.3045C149.378 34.6277 153.096 28.9346 156.782 23.2578C158.372 20.8202 159.993 18.3172 160.78 15.5034C161.566 12.7059 161.419 9.53211 159.682 7.15997C158.945 6.17839 157.88 5.39313 156.684 4.93506C169.643 5.16409 182.241 5.49129 194.561 5.93299Z" fill="url(#paint3_linear_49_1319)"/>
</g>
<defs>
<linearGradient id="paint0_linear_49_1319" x1="121.744" y1="-2.34017" x2="121.744" y2="31.3261" gradientUnits="userSpaceOnUse">
<stop stop-color="#BE2926"/>
<stop offset="0.9944" stop-color="#93211E"/>
</linearGradient>
<linearGradient id="paint1_linear_49_1319" x1="121.741" y1="86.9334" x2="121.741" y2="27.5334" gradientUnits="userSpaceOnUse">
<stop offset="0.00558659" stop-color="#D32E27"/>
<stop offset="1" stop-color="#A92223"/>
</linearGradient>
<linearGradient id="paint2_linear_49_1319" x1="121.739" y1="67.792" x2="121.739" y2="13.9796" gradientUnits="userSpaceOnUse">
<stop stop-color="#EF4623"/>
<stop offset="0.9944" stop-color="#A92223"/>
</linearGradient>
<linearGradient id="paint3_linear_49_1319" x1="178.794" y1="-27.2172" x2="131.497" y2="64.8672" gradientUnits="userSpaceOnUse">
<stop stop-color="#FF6364"/>
<stop offset="1" stop-color="#EC0002" stop-opacity="0"/>
</linearGradient>
<clipPath id="clip0_49_1319">
<rect width="236.58" height="68.9067" fill="white" transform="translate(0.984863 0.648865)"/>
</clipPath>
</defs>
</svg>
